SplineFontDB: 3.0
FontName: Alttp-Floors
FullName: Alttp Floors Regular
FamilyName: Alttp Floors
Weight: Book
Copyright: 
Version: 1.0
ItalicAngle: 0
UnderlinePosition: 77
UnderlineWidth: 51
Ascent: 768
Descent: 256
InvalidEm: 0
sfntRevision: 0x00010000
LayerCount: 2
Layer: 0 1 "Arri+AOgA-re" 1
Layer: 1 1 "Avant" 0
XUID: [1021 317 39143339 24581]
StyleMap: 0x0040
FSType: 4
OS2Version: 2
OS2_WeightWidthSlopeOnly: 0
OS2_UseTypoMetrics: 0
CreationTime: 1379761958
ModificationTime: 1544361289
PfmFamily: 81
TTFWeight: 400
TTFWidth: 5
LineGap: 0
VLineGap: 0
Panose: 0 0 4 0 0 0 0 0 0 0
OS2TypoAscent: 768
OS2TypoAOffset: 0
OS2TypoDescent: -256
OS2TypoDOffset: 0
OS2TypoLinegap: 0
OS2WinAscent: 896
OS2WinAOffset: 0
OS2WinDescent: 256
OS2WinDOffset: 0
HheadAscent: 896
HheadAOffset: 0
HheadDescent: -256
HheadDOffset: 0
OS2SubXSize: 512
OS2SubYSize: 512
OS2SubXOff: 0
OS2SubYOff: -128
OS2SupXSize: 512
OS2SupYSize: 512
OS2SupXOff: 0
OS2SupYOff: 512
OS2StrikeYSize: 51
OS2StrikeYPos: 204
OS2CapHeight: 896
OS2XHeight: 640
OS2Vendor: 'FSTR'
OS2CodePages: 00000001.00000000
OS2UnicodeRanges: 80000001.00000000.00000000.00000000
MarkAttachClasses: 1
DEI: 91125
ShortTable: maxp 16
  1
  0
  73
  32
  5
  0
  0
  2
  0
  0
  0
  0
  0
  0
  0
  0
EndShort

StartChar: exclam
Encoding: 33 33 4
Width: 512
Flags: W
LayerCount: 2
Fore
SplineSet
128 0 m 1,0,-1
 128 128 l 1,1,-1
 384 128 l 1,2,-1
 384 0 l 1,3,-1
 128 0 l 1,0,-1
128 256 m 1,4,-1
 127 896 l 1,5,-1
 384 896 l 1,6,-1
 384 256 l 1,7,-1
 128 256 l 1,4,-1
EndSplineSet
EndChar

StartChar: numbersign
Encoding: 35 35 5
Width: 806
Flags: W
LayerCount: 2
Fore
SplineSet
128 0 m 1,0,-1
 128 128 l 1,1,-1
 0 128 l 1,2,-1
 0 256 l 1,3,-1
 128 256 l 1,4,-1
 128 384 l 1,5,-1
 0 384 l 1,6,-1
 0 512 l 1,7,-1
 128 512 l 1,8,-1
 128 640 l 1,9,-1
 256 640 l 1,10,-1
 256 512 l 1,11,-1
 384 512 l 1,12,-1
 384 640 l 1,13,-1
 512 640 l 1,14,-1
 512 512 l 1,15,-1
 640 512 l 1,16,-1
 640 384 l 1,17,-1
 512 384 l 1,18,-1
 512 256 l 1,19,-1
 640 256 l 1,20,-1
 640 128 l 1,21,-1
 512 128 l 1,22,-1
 512 0 l 1,23,-1
 384 0 l 1,24,-1
 384 128 l 1,25,-1
 256 128 l 1,26,-1
 256 0 l 1,27,-1
 128 0 l 1,0,-1
384 256 m 1,28,-1
 384 384 l 1,29,-1
 256 384 l 1,30,-1
 256 256 l 1,31,-1
 384 256 l 1,28,-1
EndSplineSet
EndChar

StartChar: parenleft
Encoding: 40 40 6
Width: 640
Flags: W
LayerCount: 2
Fore
SplineSet
128 128 m 1,0,-1
 128 256 l 1,1,-1
 0 256 l 1,2,-1
 0 640 l 1,3,-1
 128 640 l 1,4,-1
 128 768 l 1,5,-1
 384 768 l 1,6,-1
 384 640 l 1,7,-1
 256 640 l 1,8,-1
 256 256 l 1,9,-1
 384 256 l 1,10,-1
 384 128 l 1,11,-1
 512 128 l 1,12,-1
 512 0 l 1,13,-1
 384 0 l 1,14,-1
 384 128 l 1,15,-1
 128 128 l 1,0,-1
384 768 m 1,16,-1
 384 896 l 1,17,-1
 512 896 l 1,18,-1
 512 768 l 1,19,-1
 384 768 l 1,16,-1
EndSplineSet
EndChar

StartChar: parenright
Encoding: 41 41 7
Width: 640
Flags: W
LayerCount: 2
Fore
SplineSet
0 0 m 1,0,-1
 0 128 l 1,1,-1
 128 128 l 1,2,-1
 128 0 l 1,3,-1
 0 0 l 1,0,-1
0 768 m 1,4,-1
 0 896 l 1,5,-1
 128 896 l 1,6,-1
 128 768 l 1,7,-1
 384 768 l 1,8,-1
 384 640 l 1,9,-1
 512 640 l 1,10,-1
 512 256 l 1,11,-1
 384 256 l 1,12,-1
 384 128 l 1,13,-1
 128 128 l 1,14,-1
 128 256 l 1,15,-1
 256 256 l 1,16,-1
 256 640 l 1,17,-1
 128 640 l 1,18,-1
 128 768 l 1,19,-1
 0 768 l 1,4,-1
EndSplineSet
EndChar

StartChar: period
Encoding: 46 46 8
Width: 384
Flags: W
LayerCount: 2
Fore
SplineSet
0 0 m 1,0,-1
 0 256 l 1,1,-1
 256 256 l 1,2,-1
 256 0 l 1,3,-1
 0 0 l 1,0,-1
EndSplineSet
EndChar

StartChar: zero
Encoding: 48 48 9
Width: 1024
Flags: W
LayerCount: 2
Fore
SplineSet
128 0 m 1,0,-1
 128 128 l 1,1,-1
 0 128 l 1,2,-1
 0 768 l 1,3,-1
 128 768 l 1,4,-1
 128 896 l 1,5,-1
 768 896 l 1,6,-1
 768 768 l 1,7,-1
 896 768 l 1,8,-1
 896 128 l 1,9,-1
 768 128 l 1,10,-1
 768 0 l 1,11,-1
 128 0 l 1,0,-1
640 128 m 1,12,-1
 640 768 l 1,13,-1
 256 768 l 1,14,-1
 256 128 l 1,15,-1
 640 128 l 1,12,-1
EndSplineSet
EndChar

StartChar: one
Encoding: 49 49 10
Width: 512
Flags: W
LayerCount: 2
Fore
SplineSet
128 0 m 1,0,-1
 128 768 l 1,1,-1
 0 768 l 1,2,-1
 0 896 l 1,3,-1
 384 896 l 1,4,-1
 384 0 l 1,5,-1
 128 0 l 1,0,-1
EndSplineSet
EndChar

StartChar: two
Encoding: 50 50 11
Width: 1024
Flags: W
LayerCount: 2
Fore
SplineSet
0 0 m 1,0,-1
 0 254 l 1,1,-1
 128 256 l 1,2,-1
 128 384 l 1,3,-1
 384 384 l 1,4,-1
 384 512 l 1,5,-1
 640 512 l 1,6,-1
 640 768 l 1,7,-1
 256 768 l 1,8,-1
 256 512 l 1,9,-1
 0 512 l 1,10,-1
 0 768 l 1,11,-1
 128 768 l 1,12,-1
 128 896 l 1,13,-1
 768 896 l 1,14,-1
 768 768 l 1,15,-1
 896 768 l 1,16,-1
 896 512 l 1,17,-1
 768 512 l 1,18,-1
 768 384 l 1,19,-1
 512 384 l 1,20,-1
 512 254 l 1,21,-1
 384 256 l 1,22,-1
 384 128 l 1,23,-1
 896 128 l 1,24,-1
 896 0 l 1,25,-1
 0 0 l 1,0,-1
EndSplineSet
EndChar

StartChar: three
Encoding: 51 51 12
Width: 1024
Flags: W
LayerCount: 2
Fore
SplineSet
0 256 m 1,0,-1
 256 256 l 1,1,-1
 256 128 l 1,2,-1
 640 128 l 1,3,-1
 640 384 l 1,4,-1
 256 384 l 1,5,-1
 256 512 l 1,6,-1
 384 512 l 1,7,-1
 384 640 l 1,8,-1
 512 640 l 1,9,-1
 512 768 l 1,10,-1
 0 768 l 1,11,-1
 0 896 l 1,12,-1
 896 896 l 1,13,-1
 896 768 l 1,14,-1
 768 768 l 1,15,-1
 768 640 l 1,16,-1
 640 640 l 1,17,-1
 640 512 l 1,18,-1
 768 512 l 1,19,-1
 768 384 l 1,20,-1
 896 384 l 1,21,-1
 896 128 l 1,22,-1
 768 128 l 1,23,-1
 768 0 l 1,24,-1
 128 0 l 1,25,-1
 128 128 l 1,26,-1
 0 128 l 1,27,-1
 0 256 l 1,0,-1
EndSplineSet
EndChar

StartChar: four
Encoding: 52 52 13
Width: 1024
Flags: W
LayerCount: 2
Fore
SplineSet
128 512 m 1025,0,-1
256 512 m 1025,1,-1
256 512 m 1,2,-1
 256 256 l 1,3,-1
 512 256 l 1,4,-1
 512 640 l 1,5,-1
 384 640 l 1,6,-1
 384 512 l 1,7,-1
 256 512 l 1,2,-1
512 0 m 1,8,-1
 512 128 l 1,9,-1
 0 128 l 1,10,-1
 0 512 l 1,11,-1
 128 512 l 1,12,-1
 128 642 l 1,13,-1
 256 641 l 1,14,-1
 256 768 l 1,15,-1
 384 768 l 1,16,-1
 384 896 l 1,17,-1
 768 896 l 1,18,-1
 768 256 l 1,19,-1
 896 256 l 1,20,-1
 896 128 l 1,21,-1
 768 128 l 1,22,-1
 768 0 l 1,23,-1
 512 0 l 1,8,-1
EndSplineSet
EndChar

StartChar: five
Encoding: 53 53 14
Width: 1024
Flags: W
LayerCount: 2
Fore
SplineSet
0 256 m 1,0,-1
 256 256 l 1,1,-1
 256 128 l 1,2,-1
 640 128 l 1,3,-1
 640 512 l 1,4,-1
 128 512 l 1,5,-1
 128 384 l 1,6,-1
 0 384 l 1,7,-1
 0 896 l 1,8,-1
 768 896 l 1,9,-1
 768 768 l 1,10,-1
 256 768 l 1,11,-1
 256 640 l 1,12,-1
 768 640 l 1,13,-1
 768 512 l 1,14,-1
 896 512 l 1,15,-1
 896 128 l 1,16,-1
 768 128 l 1,17,-1
 768 0 l 1,18,-1
 128 0 l 1,19,-1
 128 128 l 1,20,-1
 0 128 l 1,21,-1
 0 256 l 1,0,-1
EndSplineSet
EndChar

StartChar: six
Encoding: 54 54 15
Width: 1024
Flags: W
LayerCount: 2
Fore
SplineSet
640 128 m 1,0,-1
 640 384 l 1,1,-1
 256 384 l 1,2,-1
 256 128 l 1,3,-1
 640 128 l 1,0,-1
128 0 m 1,4,-1
 128 128 l 1,5,-1
 0 128 l 1,6,-1
 0 768 l 1,7,-1
 128 768 l 1,8,-1
 128 896 l 1,9,-1
 768 896 l 1,10,-1
 768 768 l 1,11,-1
 896 768 l 1,12,-1
 896 640 l 1,13,-1
 640 640 l 1,14,-1
 640 768 l 1,15,-1
 256 768 l 1,16,-1
 256 512 l 1,17,-1
 768 512 l 1,18,-1
 768 384 l 1,19,-1
 896 384 l 1,20,-1
 896 128 l 1,21,-1
 768 128 l 1,22,-1
 768 0 l 1,23,-1
 128 0 l 1,4,-1
EndSplineSet
EndChar

StartChar: seven
Encoding: 55 55 16
Width: 1024
Flags: W
LayerCount: 2
Fore
SplineSet
384 0 m 1,0,-1
 384 384 l 1,1,-1
 512 384 l 1,2,-1
 512 512 l 1,3,-1
 640 512 l 1,4,-1
 640 768 l 1,5,-1
 256 768 l 1,6,-1
 256 512 l 1,7,-1
 0 512 l 1,8,-1
 0 896 l 1,9,-1
 896 896 l 1,10,-1
 896 512 l 1,11,-1
 768 512 l 1,12,-1
 768 384 l 1,13,-1
 640 384 l 1,14,-1
 640 0 l 1,15,-1
 384 0 l 1,0,-1
EndSplineSet
EndChar

StartChar: eight
Encoding: 56 56 17
Width: 1024
Flags: W
LayerCount: 2
Fore
SplineSet
128 0 m 1,0,-1
 128 128 l 1,1,-1
 0 128 l 1,2,-1
 0 384 l 1,3,-1
 128 384 l 1,4,-1
 128 512 l 1,5,-1
 0 512 l 1,6,-1
 0 768 l 1,7,-1
 128 768 l 1,8,-1
 128 896 l 1,9,-1
 768 896 l 1,10,-1
 768 768 l 1,11,-1
 896 768 l 1,12,-1
 896 512 l 1,13,-1
 768 512 l 1,14,-1
 768 384 l 1,15,-1
 896 384 l 1,16,-1
 896 128 l 1,17,-1
 768 128 l 1,18,-1
 768 0 l 1,19,-1
 128 0 l 1,0,-1
640 512 m 1,20,-1
 640 768 l 1,21,-1
 256 768 l 1,22,-1
 256 512 l 1,23,-1
 640 512 l 1,20,-1
640 128 m 1,24,-1
 640 384 l 1,25,-1
 256 384 l 1,26,-1
 256 128 l 1,27,-1
 640 128 l 1,24,-1
EndSplineSet
EndChar

StartChar: nine
Encoding: 57 57 18
Width: 1024
Flags: W
LayerCount: 2
Fore
SplineSet
0 256 m 1,0,-1
 256 256 l 1,1,-1
 256 128 l 1,2,-1
 640 128 l 1,3,-1
 640 384 l 1,4,-1
 128 384 l 1,5,-1
 128 512 l 1,6,-1
 0 512 l 1,7,-1
 0 768 l 1,8,-1
 128 768 l 1,9,-1
 128 896 l 1,10,-1
 768 896 l 1,11,-1
 768 768 l 1,12,-1
 896 768 l 1,13,-1
 896 128 l 1,14,-1
 768 128 l 1,15,-1
 768 0 l 1,16,-1
 128 0 l 1,17,-1
 128 128 l 1,18,-1
 0 128 l 1,19,-1
 0 256 l 1,0,-1
640 512 m 1,20,-1
 640 768 l 1,21,-1
 256 768 l 1,22,-1
 256 512 l 1,23,-1
 640 512 l 1,20,-1
EndSplineSet
EndChar

StartChar: question
Encoding: 63 63 19
Width: 896
Flags: W
LayerCount: 2
Fore
SplineSet
256 0 m 1,0,-1
 256 128 l 1,1,-1
 512 128 l 1,2,-1
 512 0 l 1,3,-1
 256 0 l 1,0,-1
0 512 m 1,4,-1
 0 768 l 1,5,-1
 128 768 l 1,6,-1
 128 896 l 1,7,-1
 640 896 l 1,8,-1
 640 768 l 1,9,-1
 768 768 l 1,10,-1
 768 512 l 1,11,-1
 640 512 l 1,12,-1
 640 384 l 1,13,-1
 512 384 l 1,14,-1
 512 256 l 1,15,-1
 256 256 l 1,16,-1
 256 384 l 1,17,-1
 384 384 l 1,18,-1
 384 512 l 1,19,-1
 512 512 l 1,20,-1
 512 768 l 1,21,-1
 255 768 l 1,22,-1
 255 512 l 1,23,-1
 0 512 l 1,4,-1
EndSplineSet
EndChar

StartChar: A
Encoding: 65 65 20
Width: 896
Flags: W
LayerCount: 2
Fore
SplineSet
0 0 m 1,0,-1
 0 640 l 1,1,-1
 128 640 l 1,2,-1
 128 768 l 1,3,-1
 256 768 l 1,4,-1
 256 896 l 1,5,-1
 512 896 l 1,6,-1
 512 768 l 1,7,-1
 256 768 l 1,8,-1
 256 384 l 1,9,-1
 512 384 l 1,10,-1
 512 768 l 1,11,-1
 640 768 l 1,12,-1
 640 640 l 1,13,-1
 768 640 l 1,14,-1
 768 0 l 1,15,-1
 512 0 l 1,16,-1
 512 256 l 1,17,-1
 256 256 l 1,18,-1
 256 0 l 1,19,-1
 0 0 l 1,0,-1
EndSplineSet
EndChar

StartChar: B
Encoding: 66 66 21
Width: 896
Flags: W
LayerCount: 2
Fore
SplineSet
0 0 m 1,0,-1
 0 896 l 1,1,-1
 640 896 l 1,2,-1
 640 768 l 1,3,-1
 768 768 l 1,4,-1
 768 512 l 1,5,-1
 640 512 l 1,6,-1
 640 384 l 1,7,-1
 768 384 l 1,8,-1
 768 128 l 1,9,-1
 640 128 l 1,10,-1
 640 0 l 1,11,-1
 0 0 l 1,0,-1
512 512 m 1,12,-1
 512 768 l 1,13,-1
 256 768 l 1,14,-1
 256 512 l 1,15,-1
 512 512 l 1,12,-1
512 128 m 1,16,-1
 512 384 l 1,17,-1
 256 384 l 1,18,-1
 256 128 l 1,19,-1
 512 128 l 1,16,-1
EndSplineSet
EndChar

StartChar: C
Encoding: 67 67 22
Width: 896
Flags: W
LayerCount: 2
Fore
SplineSet
128 0 m 1,0,-1
 128 128 l 1,1,-1
 0 128 l 1,2,-1
 0 768 l 1,3,-1
 128 768 l 1,4,-1
 128 896 l 1,5,-1
 640 896 l 1,6,-1
 640 768 l 1,7,-1
 768 768 l 1,8,-1
 768 640 l 1,9,-1
 512 640 l 1,10,-1
 512 768 l 1,11,-1
 256 768 l 1,12,-1
 256 128 l 1,13,-1
 512 128 l 1,14,-1
 512 256 l 1,15,-1
 768 256 l 1,16,-1
 768 128 l 1,17,-1
 640 128 l 1,18,-1
 640 0 l 1,19,-1
 128 0 l 1,0,-1
EndSplineSet
EndChar

StartChar: D
Encoding: 68 68 23
Width: 896
Flags: W
LayerCount: 2
Fore
SplineSet
0 0 m 1,0,-1
 0 896 l 1,1,-1
 640 896 l 1,2,-1
 640 768 l 1,3,-1
 768 768 l 1,4,-1
 768 128 l 1,5,-1
 640 128 l 1,6,-1
 640 0 l 1,7,-1
 0 0 l 1,0,-1
512 128 m 1,8,-1
 512 768 l 1,9,-1
 256 768 l 1,10,-1
 256 128 l 1,11,-1
 512 128 l 1,8,-1
EndSplineSet
EndChar

StartChar: E
Encoding: 69 69 24
Width: 896
Flags: W
LayerCount: 2
Fore
SplineSet
0 0 m 1,0,-1
 0 896 l 1,1,-1
 768 896 l 1,2,-1
 768 768 l 1,3,-1
 256 768 l 1,4,-1
 256 512 l 1,5,-1
 640 512 l 1,6,-1
 640 384 l 1,7,-1
 256 384 l 1,8,-1
 256 128 l 1,9,-1
 768 128 l 1,10,-1
 768 0 l 1,11,-1
 0 0 l 1,0,-1
EndSplineSet
EndChar

StartChar: F
Encoding: 70 70 25
Width: 896
Flags: W
LayerCount: 2
Fore
SplineSet
0 0 m 1,0,-1
 0 896 l 1,1,-1
 768 896 l 1,2,-1
 768 768 l 1,3,-1
 256 768 l 1,4,-1
 256 512 l 1,5,-1
 640 512 l 1,6,-1
 640 384 l 1,7,-1
 256 384 l 1,8,-1
 256 0 l 1,9,-1
 0 0 l 1,0,-1
EndSplineSet
EndChar

StartChar: G
Encoding: 71 71 26
Width: 896
Flags: W
LayerCount: 2
Fore
SplineSet
128 0 m 1,0,-1
 128 128 l 1,1,-1
 0 128 l 1,2,-1
 0 768 l 1,3,-1
 128 768 l 1,4,-1
 128 896 l 1,5,-1
 640 896 l 1,6,-1
 640 768 l 1,7,-1
 768 768 l 1,8,-1
 768 640 l 1,9,-1
 512 640 l 1,10,-1
 512 768 l 1,11,-1
 256 768 l 1,12,-1
 256 128 l 1,13,-1
 512 128 l 1,14,-1
 512 0 l 1,15,-1
 128 0 l 1,0,-1
640 0 m 1,16,-1
 640 128 l 1,17,-1
 512 128 l 1,18,-1
 512 384 l 1,19,-1
 384 384 l 1,20,-1
 384 512 l 1,21,-1
 768 512 l 1,22,-1
 768 0 l 1,23,-1
 640 0 l 1,16,-1
EndSplineSet
EndChar

StartChar: H
Encoding: 72 72 27
Width: 896
Flags: W
LayerCount: 2
Fore
SplineSet
0 0 m 1,0,-1
 0 896 l 1,1,-1
 256 896 l 1,2,-1
 256 512 l 1,3,-1
 512 512 l 1,4,-1
 512 896 l 1,5,-1
 768 896 l 1,6,-1
 768 0 l 1,7,-1
 512 0 l 1,8,-1
 512 384 l 1,9,-1
 256 384 l 1,10,-1
 256 0 l 1,11,-1
 0 0 l 1,0,-1
EndSplineSet
EndChar

StartChar: I
Encoding: 73 73 28
Width: 640
Flags: W
LayerCount: 2
Fore
SplineSet
0 0 m 1,0,-1
 0 128 l 1,1,-1
 128 128 l 1,2,-1
 128 768 l 1,3,-1
 0 768 l 1,4,-1
 0 896 l 1,5,-1
 512 896 l 1,6,-1
 512 768 l 1,7,-1
 384 768 l 1,8,-1
 384 128 l 1,9,-1
 512 128 l 1,10,-1
 512 0 l 1,11,-1
 0 0 l 1,0,-1
EndSplineSet
EndChar

StartChar: J
Encoding: 74 74 29
Width: 896
Flags: W
LayerCount: 2
Fore
SplineSet
128 0 m 1,0,-1
 128 128 l 1,1,-1
 0 128 l 1,2,-1
 0 256 l 1,3,-1
 256 256 l 1,4,-1
 256 128 l 1,5,-1
 384 128 l 1,6,-1
 384 768 l 1,7,-1
 256 768 l 1,8,-1
 256 896 l 1,9,-1
 768 896 l 1,10,-1
 768 768 l 1,11,-1
 640 768 l 1,12,-1
 640 128 l 1,13,-1
 512 128 l 1,14,-1
 512 0 l 1,15,-1
 128 0 l 1,0,-1
EndSplineSet
EndChar

StartChar: K
Encoding: 75 75 30
Width: 896
Flags: W
LayerCount: 2
Fore
SplineSet
0 0 m 1,0,-1
 0 896 l 1,1,-1
 256 896 l 1,2,-1
 256 640 l 1,3,-1
 384 640 l 1,4,-1
 384 768 l 1,5,-1
 512 768 l 1,6,-1
 512 896 l 1,7,-1
 768 896 l 1,8,-1
 768 768 l 1,9,-1
 640 768 l 1,10,-1
 640 640 l 1,11,-1
 512 640 l 1,12,-1
 512 512 l 1,13,-1
 384 512 l 1,14,-1
 384 384 l 1,15,-1
 512 384 l 1,16,-1
 512 256 l 1,17,-1
 640 256 l 1,18,-1
 640 128 l 1,19,-1
 768 128 l 1,20,-1
 768 0 l 1,21,-1
 512 0 l 1,22,-1
 512 128 l 1,23,-1
 384 128 l 1,24,-1
 384 256 l 1,25,-1
 256 256 l 1,26,-1
 256 0 l 1,27,-1
 0 0 l 1,0,-1
EndSplineSet
EndChar

StartChar: L
Encoding: 76 76 31
Width: 896
Flags: W
LayerCount: 2
Fore
SplineSet
0 0 m 1,0,-1
 0 896 l 1,1,-1
 256 896 l 1,2,-1
 256 128 l 1,3,-1
 768 128 l 1,4,-1
 768 0 l 1,5,-1
 0 0 l 1,0,-1
EndSplineSet
EndChar

StartChar: M
Encoding: 77 77 32
Width: 896
Flags: W
LayerCount: 2
Fore
SplineSet
768 0 m 1,0,-1
 640 0 l 1,1,-1
 640 512 l 1,2,-1
 512 512 l 1,3,-1
 512 384 l 1,4,-1
 384 384 l 1,5,-1
 384 512 l 1,6,-1
 256 512 l 1,7,-1
 256 0 l 1,8,-1
 0 0 l 1,9,-1
 0 896 l 1,10,-1
 256 896 l 1,11,-1
 256 768 l 1,12,-1
 384 768 l 1,13,-1
 384 640 l 1,14,-1
 512 640 l 1,15,-1
 512 768 l 1,16,-1
 640 768 l 1,17,-1
 640 896 l 1,18,-1
 768 896 l 1,19,-1
 768 0 l 1,0,-1
EndSplineSet
EndChar

StartChar: N
Encoding: 78 78 33
Width: 896
Flags: W
LayerCount: 2
Fore
SplineSet
0 0 m 1,0,-1
 0 896 l 1,1,-1
 256 896 l 1,2,-1
 256 768 l 1,3,-1
 384 768 l 1,4,-1
 384 640 l 1,5,-1
 512 640 l 1,6,-1
 512 512 l 1,7,-1
 640 512 l 1,8,-1
 640 896 l 1,9,-1
 768 896 l 1,10,-1
 768 0 l 1,11,-1
 640 0 l 1,12,-1
 640 256 l 1,13,-1
 512 256 l 1,14,-1
 512 384 l 1,15,-1
 384 384 l 1,16,-1
 384 512 l 1,17,-1
 256 512 l 1,18,-1
 256 0 l 1,19,-1
 0 0 l 1,0,-1
EndSplineSet
EndChar

StartChar: O
Encoding: 79 79 34
Width: 896
Flags: W
LayerCount: 2
Fore
SplineSet
128 0 m 1,0,-1
 128 128 l 1,1,-1
 0 128 l 1,2,-1
 0 768 l 1,3,-1
 128 768 l 1,4,-1
 128 896 l 1,5,-1
 640 896 l 1,6,-1
 640 768 l 1,7,-1
 768 768 l 1,8,-1
 768 128 l 1,9,-1
 640 128 l 1,10,-1
 640 0 l 1,11,-1
 128 0 l 1,0,-1
512 128 m 1,12,-1
 512 768 l 1,13,-1
 256 768 l 1,14,-1
 256 128 l 1,15,-1
 512 128 l 1,12,-1
EndSplineSet
EndChar

StartChar: P
Encoding: 80 80 35
Width: 896
Flags: W
LayerCount: 2
Fore
SplineSet
0 0 m 1,0,-1
 0 896 l 1,1,-1
 640 896 l 1,2,-1
 640 768 l 1,3,-1
 768 768 l 1,4,-1
 768 384 l 1,5,-1
 640 384 l 1,6,-1
 640 256 l 1,7,-1
 256 256 l 1,8,-1
 256 0 l 1,9,-1
 0 0 l 1,0,-1
512 384 m 1,10,-1
 512 768 l 1,11,-1
 256 768 l 1,12,-1
 256 384 l 1,13,-1
 512 384 l 1,10,-1
EndSplineSet
EndChar

StartChar: Q
Encoding: 81 81 36
Width: 896
Flags: W
LayerCount: 2
Fore
SplineSet
128 0 m 1,0,-1
 128 128 l 1,1,-1
 0 128 l 1,2,-1
 0 768 l 1,3,-1
 128 768 l 1,4,-1
 128 896 l 1,5,-1
 640 896 l 1,6,-1
 640 768 l 1,7,-1
 768 768 l 1,8,-1
 768 256 l 1,9,-1
 640 256 l 1,10,-1
 640 128 l 1,11,-1
 768 128 l 1,12,-1
 768 0 l 1,13,-1
 640 0 l 1,14,-1
 640 128 l 1,15,-1
 512 128 l 1,16,-1
 512 0 l 1,17,-1
 128 0 l 1,0,-1
384 256 m 1,18,-1
 512 256 l 1,19,-1
 512 768 l 1,20,-1
 256 768 l 1,21,-1
 256 384 l 1,22,-1
 384 384 l 1,23,-1
 384 256 l 1,18,-1
384 256 m 1,24,-1
 256 256 l 1,25,-1
 256 128 l 1,26,-1
 384 128 l 1,27,-1
 384 256 l 1,24,-1
EndSplineSet
EndChar

StartChar: R
Encoding: 82 82 37
Width: 896
Flags: W
LayerCount: 2
Fore
SplineSet
0 0 m 1,0,-1
 0 896 l 1,1,-1
 640 896 l 1,2,-1
 640 768 l 1,3,-1
 768 768 l 1,4,-1
 768 512 l 1,5,-1
 640 512 l 1,6,-1
 640 384 l 1,7,-1
 512 384 l 1,8,-1
 512 256 l 1,9,-1
 640 256 l 1,10,-1
 640 128 l 1,11,-1
 768 128 l 1,12,-1
 768 0 l 1,13,-1
 512 0 l 1,14,-1
 512 128 l 1,15,-1
 384 128 l 1,16,-1
 384 256 l 1,17,-1
 256 256 l 1,18,-1
 256 0 l 1,19,-1
 0 0 l 1,0,-1
512 512 m 1,20,-1
 512 768 l 1,21,-1
 256 768 l 1,22,-1
 256 512 l 1,23,-1
 512 512 l 1,20,-1
EndSplineSet
EndChar

StartChar: S
Encoding: 83 83 38
Width: 896
Flags: W
LayerCount: 2
Fore
SplineSet
128 0 m 1,0,-1
 128 128 l 1,1,-1
 0 128 l 1,2,-1
 0 256 l 1,3,-1
 256 256 l 1,4,-1
 256 128 l 1,5,-1
 512 128 l 1,6,-1
 512 384 l 1,7,-1
 128 384 l 1,8,-1
 128 512 l 1,9,-1
 0 512 l 1,10,-1
 0 768 l 1,11,-1
 128 768 l 1,12,-1
 128 896 l 1,13,-1
 640 896 l 1,14,-1
 640 768 l 1,15,-1
 768 768 l 1,16,-1
 768 640 l 1,17,-1
 512 640 l 1,18,-1
 512 768 l 1,19,-1
 256 768 l 1,20,-1
 256 512 l 1,21,-1
 640 512 l 1,22,-1
 640 384 l 1,23,-1
 768 384 l 1,24,-1
 768 128 l 1,25,-1
 640 128 l 1,26,-1
 640 0 l 1,27,-1
 128 0 l 1,0,-1
EndSplineSet
EndChar

StartChar: T
Encoding: 84 84 39
Width: 896
Flags: W
LayerCount: 2
Fore
SplineSet
256 0 m 1,0,-1
 256 768 l 1,1,-1
 0 768 l 1,2,-1
 0 896 l 1,3,-1
 768 896 l 1,4,-1
 768 768 l 1,5,-1
 512 768 l 1,6,-1
 512 0 l 1,7,-1
 256 0 l 1,0,-1
EndSplineSet
EndChar

StartChar: U
Encoding: 85 85 40
Width: 896
Flags: W
LayerCount: 2
Fore
SplineSet
128 0 m 1,0,-1
 128 128 l 1,1,-1
 0 128 l 1,2,-1
 0 896 l 1,3,-1
 256 896 l 1,4,-1
 256 128 l 1,5,-1
 512 128 l 1,6,-1
 512 896 l 1,7,-1
 768 896 l 1,8,-1
 768 128 l 1,9,-1
 640 128 l 1,10,-1
 640 0 l 1,11,-1
 128 0 l 1,0,-1
EndSplineSet
EndChar

StartChar: V
Encoding: 86 86 41
Width: 896
Flags: W
LayerCount: 2
Fore
SplineSet
256 0 m 1,0,-1
 256 128 l 1,1,-1
 128 128 l 1,2,-1
 128 384 l 1,3,-1
 0 384 l 1,4,-1
 0 896 l 1,5,-1
 256 896 l 1,6,-1
 256 256 l 1,7,-1
 512 256 l 1,8,-1
 512 896 l 1,9,-1
 768 896 l 1,10,-1
 768 384 l 1,11,-1
 640 384 l 1,12,-1
 640 128 l 1,13,-1
 512 128 l 1,14,-1
 512 0 l 1,15,-1
 256 0 l 1,0,-1
EndSplineSet
EndChar

StartChar: W
Encoding: 87 87 42
Width: 896
Flags: W
LayerCount: 2
Fore
SplineSet
640 0 m 1,0,-1
 512 0 l 1,1,-1
 512 256 l 1,2,-1
 384 256 l 1,3,-1
 384 0 l 1,4,-1
 128 0 l 1,5,-1
 128 256 l 1,6,-1
 0 256 l 1,7,-1
 0 896 l 1,8,-1
 256 896 l 1,9,-1
 256 384 l 1,10,-1
 384 384 l 1,11,-1
 384 768 l 1,12,-1
 512 768 l 1,13,-1
 512 384 l 1,14,-1
 640 384 l 1,15,-1
 640 896 l 1,16,-1
 768 896 l 1,17,-1
 768 256 l 1,18,-1
 640 256 l 1,19,-1
 640 0 l 1,0,-1
EndSplineSet
EndChar

StartChar: X
Encoding: 88 88 43
Width: 896
Flags: W
LayerCount: 2
Fore
SplineSet
0 0 m 1,0,-1
 0 256 l 1,1,-1
 128 256 l 1,2,-1
 128 384 l 1,3,-1
 256 384 l 1,4,-1
 256 512 l 1,5,-1
 128 512 l 1,6,-1
 128 640 l 1,7,-1
 0 640 l 1,8,-1
 0 896 l 1,9,-1
 256 896 l 1,10,-1
 256 640 l 1,11,-1
 512 640 l 1,12,-1
 512 896 l 1,13,-1
 768 896 l 1,14,-1
 768 640 l 1,15,-1
 640 640 l 1,16,-1
 640 512 l 1,17,-1
 512 512 l 1,18,-1
 512 384 l 1,19,-1
 640 384 l 1,20,-1
 640 256 l 1,21,-1
 768 256 l 1,22,-1
 768 0 l 1,23,-1
 512 0 l 1,24,-1
 512 256 l 1,25,-1
 256 256 l 1,26,-1
 256 0 l 1,27,-1
 0 0 l 1,0,-1
EndSplineSet
EndChar

StartChar: Y
Encoding: 89 89 44
Width: 896
Flags: W
LayerCount: 2
Fore
SplineSet
256 0 m 1,0,-1
 256 384 l 1,1,-1
 128 384 l 1,2,-1
 128 512 l 1,3,-1
 0 512 l 1,4,-1
 0 896 l 1,5,-1
 256 896 l 1,6,-1
 256 512 l 1,7,-1
 512 512 l 1,8,-1
 512 896 l 1,9,-1
 768 896 l 1,10,-1
 768 512 l 1,11,-1
 640 512 l 1,12,-1
 640 384 l 1,13,-1
 512 384 l 1,14,-1
 512 0 l 1,15,-1
 256 0 l 1,0,-1
EndSplineSet
EndChar

StartChar: Z
Encoding: 90 90 45
Width: 896
Flags: W
LayerCount: 2
Fore
SplineSet
0 0 m 1,0,-1
 0 256 l 1,1,-1
 128 256 l 1,2,-1
 128 384 l 1,3,-1
 256 384 l 1,4,-1
 256 512 l 1,5,-1
 384 512 l 1,6,-1
 384 640 l 1,7,-1
 512 640 l 1,8,-1
 512 768 l 1,9,-1
 0 768 l 1,10,-1
 0 896 l 1,11,-1
 768 896 l 1,12,-1
 768 640 l 1,13,-1
 640 640 l 1,14,-1
 640 512 l 1,15,-1
 512 512 l 1,16,-1
 512 384 l 1,17,-1
 384 384 l 1,18,-1
 384 256 l 1,19,-1
 256 256 l 1,20,-1
 256 128 l 1,21,-1
 768 128 l 1,22,-1
 768 0 l 1,23,-1
 0 0 l 1,0,-1
EndSplineSet
EndChar

StartChar: a
Encoding: 97 97 46
Width: 896
Flags: W
LayerCount: 2
Fore
SplineSet
128 0 m 1,0,-1
 128 128 l 1,1,-1
 0 128 l 1,2,-1
 0 256 l 1,3,-1
 128 256 l 1,4,-1
 128 384 l 1,5,-1
 384 384 l 1,6,-1
 384 512 l 1,7,-1
 128 512 l 1,8,-1
 128 640 l 1,9,-1
 512 640 l 1,10,-1
 512 512 l 1,11,-1
 640 512 l 1,12,-1
 640 128 l 1,13,-1
 768 128 l 1,14,-1
 768 0 l 1,15,-1
 512 0 l 1,16,-1
 512 128 l 1,17,-1
 384 128 l 1,18,-1
 384 0 l 1,19,-1
 128 0 l 1,0,-1
384 128 m 1,20,-1
 384 256 l 1,21,-1
 256 256 l 1,22,-1
 256 128 l 1,23,-1
 384 128 l 1,20,-1
EndSplineSet
EndChar

StartChar: b
Encoding: 98 98 47
Width: 768
Flags: W
LayerCount: 2
Fore
SplineSet
0 0 m 1,0,-1
 0 768 l 1,1,-1
 256 768 l 1,2,-1
 256 512 l 1,3,-1
 512 512 l 1,4,-1
 512 384 l 1,5,-1
 640 384 l 1,6,-1
 640 128 l 1,7,-1
 512 128 l 1,8,-1
 512 0 l 1,9,-1
 0 0 l 1,0,-1
384 128 m 1,10,-1
 384 384 l 1,11,-1
 256 384 l 1,12,-1
 256 128 l 1,13,-1
 384 128 l 1,10,-1
EndSplineSet
EndChar

StartChar: c
Encoding: 99 99 48
Width: 768
Flags: W
LayerCount: 2
Fore
SplineSet
128 0 m 1,0,-1
 128 128 l 1,1,-1
 0 128 l 1,2,-1
 0 512 l 1,3,-1
 128 512 l 1,4,-1
 128 640 l 1,5,-1
 640 640 l 1,6,-1
 640 512 l 1,7,-1
 256 512 l 1,8,-1
 256 128 l 1,9,-1
 640 128 l 1,10,-1
 640 0 l 1,11,-1
 128 0 l 1,0,-1
EndSplineSet
EndChar

StartChar: d
Encoding: 100 100 49
Width: 768
Flags: W
LayerCount: 2
Fore
SplineSet
128 0 m 1,0,-1
 128 128 l 1,1,-1
 0 128 l 1,2,-1
 0 384 l 1,3,-1
 128 384 l 1,4,-1
 128 512 l 1,5,-1
 384 512 l 1,6,-1
 384 768 l 1,7,-1
 640 768 l 1,8,-1
 640 0 l 1,9,-1
 128 0 l 1,0,-1
384 128 m 1,10,-1
 384 384 l 1,11,-1
 256 384 l 1,12,-1
 256 128 l 1,13,-1
 384 128 l 1,10,-1
EndSplineSet
EndChar

StartChar: e
Encoding: 101 101 50
Width: 768
Flags: W
LayerCount: 2
Fore
SplineSet
128 0 m 1,0,-1
 128 128 l 1,1,-1
 0 128 l 1,2,-1
 0 512 l 1,3,-1
 128 512 l 1,4,-1
 128 640 l 1,5,-1
 512 640 l 1,6,-1
 512 512 l 1,7,-1
 640 512 l 1,8,-1
 640 256 l 1,9,-1
 256 256 l 1,10,-1
 256 128 l 1,11,-1
 512 128 l 1,12,-1
 512 0 l 1,13,-1
 128 0 l 1,0,-1
384 384 m 1,14,-1
 384 512 l 1,15,-1
 256 512 l 1,16,-1
 256 384 l 1,17,-1
 384 384 l 1,14,-1
EndSplineSet
EndChar

StartChar: f
Encoding: 102 102 51
Width: 768
Flags: W
LayerCount: 2
Fore
SplineSet
128 0 m 1,0,-1
 128 384 l 1,1,-1
 0 384 l 1,2,-1
 0 512 l 1,3,-1
 128 512 l 1,4,-1
 128 640 l 1,5,-1
 256 640 l 1,6,-1
 256 768 l 1,7,-1
 640 768 l 1,8,-1
 640 640 l 1,9,-1
 384 640 l 1,10,-1
 384 512 l 1,11,-1
 512 512 l 1,12,-1
 512 384 l 1,13,-1
 384 384 l 1,14,-1
 384 0 l 1,15,-1
 128 0 l 1,0,-1
EndSplineSet
EndChar

StartChar: g
Encoding: 103 103 52
Width: 768
Flags: W
LayerCount: 2
Fore
SplineSet
128 -128 m 1,0,-1
 128 0 l 1,1,-1
 384 0 l 1,2,-1
 384 128 l 1,3,-1
 128 128 l 1,4,-1
 128 256 l 1,5,-1
 0 256 l 1,6,-1
 0 512 l 1,7,-1
 128 512 l 1,8,-1
 128 640 l 1,9,-1
 512 640 l 1,10,-1
 512 512 l 1,11,-1
 640 512 l 1,12,-1
 640 0 l 1,13,-1
 512 0 l 1,14,-1
 512 -128 l 1,15,-1
 128 -128 l 1,0,-1
384 256 m 1,16,-1
 384 512 l 1,17,-1
 256 512 l 1,18,-1
 256 256 l 1,19,-1
 384 256 l 1,16,-1
EndSplineSet
EndChar

StartChar: h
Encoding: 104 104 53
Width: 768
Flags: W
LayerCount: 2
Fore
SplineSet
0 0 m 1,0,-1
 0 768 l 1,1,-1
 256 768 l 1,2,-1
 256 512 l 1,3,-1
 512 512 l 1,4,-1
 512 384 l 1,5,-1
 640 384 l 1,6,-1
 640 0 l 1,7,-1
 384 0 l 1,8,-1
 384 384 l 1,9,-1
 256 384 l 1,10,-1
 256 0 l 1,11,-1
 0 0 l 1,0,-1
EndSplineSet
EndChar

StartChar: i
Encoding: 105 105 54
Width: 384
Flags: W
LayerCount: 2
Fore
SplineSet
0 640 m 1,0,-1
 0 768 l 1,1,-1
 256 768 l 1,2,-1
 256 640 l 1,3,-1
 0 640 l 1,0,-1
0 0 m 1,4,-1
 0 512 l 1,5,-1
 256 512 l 1,6,-1
 256 0 l 1,7,-1
 0 0 l 1,4,-1
EndSplineSet
EndChar

StartChar: j
Encoding: 106 106 55
Width: 512
Flags: W
LayerCount: 2
Fore
SplineSet
128 640 m 1,0,-1
 128 768 l 1,1,-1
 384 768 l 1,2,-1
 384 640 l 1,3,-1
 128 640 l 1,0,-1
0 -128 m 1,4,-1
 0 0 l 1,5,-1
 128 0 l 1,6,-1
 128 512 l 1,7,-1
 384 512 l 1,8,-1
 384 0 l 1,9,-1
 256 0 l 1,10,-1
 256 -128 l 1,11,-1
 0 -128 l 1,4,-1
EndSplineSet
EndChar

StartChar: k
Encoding: 107 107 56
Width: 768
Flags: W
LayerCount: 2
Fore
SplineSet
0 0 m 1,0,-1
 0 768 l 1,1,-1
 256 768 l 1,2,-1
 256 384 l 1,3,-1
 384 384 l 1,4,-1
 384 512 l 1,5,-1
 512 512 l 1,6,-1
 512 256 l 1,7,-1
 256 256 l 1,8,-1
 256 0 l 1,9,-1
 0 0 l 1,0,-1
512 256 m 1,10,-1
 640 256 l 1,11,-1
 640 0 l 1,12,-1
 512 0 l 1,13,-1
 512 256 l 1,10,-1
512 512 m 1,14,-1
 512 640 l 1,15,-1
 640 640 l 1,16,-1
 640 512 l 1,17,-1
 512 512 l 1,14,-1
EndSplineSet
EndChar

StartChar: l
Encoding: 108 108 57
Width: 384
Flags: W
LayerCount: 2
Fore
SplineSet
0 0 m 1,0,-1
 0 768 l 1,1,-1
 256 768 l 1,2,-1
 256 0 l 1,3,-1
 0 0 l 1,0,-1
EndSplineSet
EndChar

StartChar: m
Encoding: 109 109 58
Width: 896
Flags: W
LayerCount: 2
Fore
SplineSet
0 0 m 1,0,-1
 0 640 l 1,1,-1
 640 640 l 1,2,-1
 640 512 l 1,3,-1
 512 512 l 1,4,-1
 512 0 l 1,5,-1
 384 0 l 1,6,-1
 384 512 l 1,7,-1
 256 512 l 1,8,-1
 256 0 l 1,9,-1
 0 0 l 1,0,-1
640 512 m 1,10,-1
 768 512 l 1,11,-1
 768 0 l 1,12,-1
 640 0 l 1,13,-1
 640 512 l 1,10,-1
EndSplineSet
EndChar

StartChar: n
Encoding: 110 110 59
Width: 768
Flags: W
LayerCount: 2
Fore
SplineSet
0 0 m 1,0,-1
 0 640 l 1,1,-1
 512 640 l 1,2,-1
 512 512 l 1,3,-1
 256 512 l 1,4,-1
 256 0 l 1,5,-1
 0 0 l 1,0,-1
512 512 m 1,6,-1
 640 512 l 1,7,-1
 640 0 l 1,8,-1
 512 0 l 1,9,-1
 512 512 l 1,6,-1
EndSplineSet
EndChar

StartChar: o
Encoding: 111 111 60
Width: 768
Flags: W
LayerCount: 2
Fore
SplineSet
128 0 m 1,0,-1
 128 128 l 1,1,-1
 0 128 l 1,2,-1
 0 512 l 1,3,-1
 128 512 l 1,4,-1
 128 640 l 1,5,-1
 512 640 l 1,6,-1
 512 512 l 1,7,-1
 640 512 l 1,8,-1
 640 128 l 1,9,-1
 512 128 l 1,10,-1
 512 0 l 1,11,-1
 128 0 l 1,0,-1
384 128 m 1,12,-1
 384 512 l 1,13,-1
 256 512 l 1,14,-1
 256 128 l 1,15,-1
 384 128 l 1,12,-1
EndSplineSet
EndChar

StartChar: p
Encoding: 112 112 61
Width: 768
Flags: W
LayerCount: 2
Fore
SplineSet
0 -128 m 1,0,-1
 0 640 l 1,1,-1
 512 640 l 1,2,-1
 512 512 l 1,3,-1
 640 512 l 1,4,-1
 640 256 l 1,5,-1
 512 256 l 1,6,-1
 512 128 l 1,7,-1
 256 128 l 1,8,-1
 256 -128 l 1,9,-1
 0 -128 l 1,0,-1
384 256 m 1,10,-1
 384 512 l 1,11,-1
 256 512 l 1,12,-1
 256 256 l 1,13,-1
 384 256 l 1,10,-1
EndSplineSet
EndChar

StartChar: q
Encoding: 113 113 62
Width: 768
Flags: W
LayerCount: 2
Fore
SplineSet
384 -128 m 1,0,-1
 384 128 l 1,1,-1
 128 128 l 1,2,-1
 128 256 l 1,3,-1
 0 256 l 1,4,-1
 0 512 l 1,5,-1
 128 512 l 1,6,-1
 128 640 l 1,7,-1
 640 640 l 1,8,-1
 640 -128 l 1,9,-1
 384 -128 l 1,0,-1
384 256 m 1,10,-1
 384 512 l 1,11,-1
 256 512 l 1,12,-1
 256 256 l 1,13,-1
 384 256 l 1,10,-1
EndSplineSet
EndChar

StartChar: r
Encoding: 114 114 63
Width: 768
Flags: W
LayerCount: 2
Fore
SplineSet
0 0 m 1,0,-1
 0 640 l 1,1,-1
 128 640 l 1,2,-1
 128 512 l 1,3,-1
 256 512 l 1,4,-1
 256 640 l 1,5,-1
 640 640 l 1,6,-1
 640 512 l 1,7,-1
 384 512 l 1,8,-1
 384 384 l 1,9,-1
 256 384 l 1,10,-1
 256 0 l 1,11,-1
 0 0 l 1,0,-1
EndSplineSet
EndChar

StartChar: s
Encoding: 115 115 64
Width: 896
Flags: W
LayerCount: 2
Fore
SplineSet
128 0 m 1,0,-1
 128 128 l 1,1,-1
 512 128 l 1,2,-1
 512 256 l 1,3,-1
 128 256 l 1,4,-1
 128 384 l 1,5,-1
 0 384 l 1,6,-1
 0 512 l 1,7,-1
 128 512 l 1,8,-1
 128 640 l 1,9,-1
 640 640 l 1,10,-1
 640 512 l 1,11,-1
 256 512 l 1,12,-1
 256 384 l 1,13,-1
 640 384 l 1,14,-1
 640 256 l 1,15,-1
 768 256 l 1,16,-1
 768 128 l 1,17,-1
 640 128 l 1,18,-1
 640 0 l 1,19,-1
 128 0 l 1,0,-1
EndSplineSet
EndChar

StartChar: t
Encoding: 116 116 65
Width: 640
Flags: W
LayerCount: 2
Fore
SplineSet
128 0 m 1,0,-1
 128 512 l 1,1,-1
 0 512 l 1,2,-1
 0 640 l 1,3,-1
 128 640 l 1,4,-1
 128 768 l 1,5,-1
 384 768 l 1,6,-1
 384 640 l 1,7,-1
 512 640 l 1,8,-1
 512 512 l 1,9,-1
 384 512 l 1,10,-1
 384 0 l 1,11,-1
 128 0 l 1,0,-1
EndSplineSet
EndChar

StartChar: u
Encoding: 117 117 66
Width: 768
Flags: W
LayerCount: 2
Fore
SplineSet
128 0 m 1,0,-1
 128 128 l 1,1,-1
 0 128 l 1,2,-1
 0 640 l 1,3,-1
 256 640 l 1,4,-1
 256 128 l 1,5,-1
 384 128 l 1,6,-1
 384 640 l 1,7,-1
 640 640 l 1,8,-1
 640 0 l 1,9,-1
 128 0 l 1,0,-1
EndSplineSet
EndChar

StartChar: v
Encoding: 118 118 67
Width: 768
Flags: W
LayerCount: 2
Fore
SplineSet
128 128 m 1,0,-1
 128 256 l 1,1,-1
 0 256 l 1,2,-1
 0 640 l 1,3,-1
 256 640 l 1,4,-1
 256 128 l 1,5,-1
 128 128 l 1,0,-1
384 128 m 1,6,-1
 384 640 l 1,7,-1
 640 640 l 1,8,-1
 640 256 l 1,9,-1
 512 256 l 1,10,-1
 512 128 l 1,11,-1
 384 128 l 1,6,-1
384 128 m 1,12,-1
 384 0 l 1,13,-1
 256 0 l 1,14,-1
 256 128 l 1,15,-1
 384 128 l 1,12,-1
EndSplineSet
EndChar

StartChar: w
Encoding: 119 119 68
Width: 896
Flags: W
LayerCount: 2
Fore
SplineSet
0 0 m 1,0,-1
 0 640 l 1,1,-1
 128 640 l 1,2,-1
 128 128 l 1,3,-1
 256 128 l 1,4,-1
 256 640 l 1,5,-1
 384 640 l 1,6,-1
 384 128 l 1,7,-1
 512 128 l 1,8,-1
 512 640 l 1,9,-1
 768 640 l 1,10,-1
 768 128 l 1,11,-1
 640 128 l 1,12,-1
 640 0 l 1,13,-1
 0 0 l 1,0,-1
EndSplineSet
EndChar

StartChar: x
Encoding: 120 120 69
Width: 768
Flags: W
LayerCount: 2
Fore
SplineSet
0 0 m 1,0,-1
 0 128 l 1,1,-1
 128 128 l 1,2,-1
 128 256 l 1,3,-1
 256 256 l 1,4,-1
 256 384 l 1,5,-1
 128 384 l 1,6,-1
 128 512 l 1,7,-1
 0 512 l 1,8,-1
 0 640 l 1,9,-1
 256 640 l 1,10,-1
 256 512 l 1,11,-1
 384 512 l 1,12,-1
 384 640 l 1,13,-1
 640 640 l 1,14,-1
 640 512 l 1,15,-1
 512 512 l 1,16,-1
 512 384 l 1,17,-1
 384 384 l 1,18,-1
 384 256 l 1,19,-1
 512 256 l 1,20,-1
 512 128 l 1,21,-1
 640 128 l 1,22,-1
 640 0 l 1,23,-1
 384 0 l 1,24,-1
 384 128 l 1,25,-1
 256 128 l 1,26,-1
 256 0 l 1,27,-1
 0 0 l 1,0,-1
EndSplineSet
EndChar

StartChar: y
Encoding: 121 121 70
Width: 768
Flags: W
LayerCount: 2
Fore
SplineSet
128 -128 m 1,0,-1
 128 0 l 1,1,-1
 384 0 l 1,2,-1
 384 128 l 1,3,-1
 128 128 l 1,4,-1
 128 256 l 1,5,-1
 0 256 l 1,6,-1
 0 640 l 1,7,-1
 256 640 l 1,8,-1
 256 256 l 1,9,-1
 384 256 l 1,10,-1
 384 640 l 1,11,-1
 640 640 l 1,12,-1
 640 0 l 1,13,-1
 512 0 l 1,14,-1
 512 -128 l 1,15,-1
 128 -128 l 1,0,-1
EndSplineSet
EndChar

StartChar: z
Encoding: 122 122 71
Width: 934
Flags: W
LayerCount: 2
Fore
SplineSet
0 0 m 1,0,-1
 0 128 l 1,1,-1
 128 128 l 1,2,-1
 128 256 l 1,3,-1
 256 256 l 1,4,-1
 256 384 l 1,5,-1
 384 384 l 1,6,-1
 384 512 l 1,7,-1
 0 512 l 1,8,-1
 0 640 l 1,9,-1
 768 640 l 1,10,-1
 768 512 l 1,11,-1
 640 512 l 1,12,-1
 640 384 l 1,13,-1
 512 384 l 1,14,-1
 512 256 l 1,15,-1
 384 256 l 1,16,-1
 384 128 l 1,17,-1
 768 128 l 1,18,-1
 768 0 l 1,19,-1
 0 0 l 1,0,-1
EndSplineSet
EndChar

StartChar: quoteright
Encoding: 8217 8217 72
Width: 550
Flags: W
LayerCount: 2
Fore
SplineSet
0 640 m 1,0,-1
 0 768 l 1,1,-1
 128 768 l 1,2,-1
 128 896 l 1,3,-1
 384 896 l 1,4,-1
 384 768 l 1,5,-1
 256 768 l 1,6,-1
 256 640 l 1,7,-1
 0 640 l 1,0,-1
EndSplineSet
EndChar

StartChar: dollar
Encoding: 36 36 73
Width: 894
Flags: W
LayerCount: 2
Fore
SplineSet
256 1024 m 1,0,-1
 384 1024 l 1,1,-1
 384 896 l 1,2,-1
 513 896 l 1,3,-1
 512 768 l 1,4,-1
 640 768 l 1,5,-1
 640 640 l 1,6,-1
 512 640 l 1,7,-1
 512 768 l 1,8,-1
 384 768 l 1,9,-1
 384 512 l 1,10,-1
 512 512 l 1,11,-1
 512 384 l 1,12,-1
 384 384 l 1,13,-1
 384 128 l 1,14,-1
 512 128 l 1,15,-1
 512 384 l 1,16,-1
 640 384 l 1,17,-1
 640 128 l 1,18,-1
 512 128 l 1,19,-1
 512 0 l 1,20,-1
 384 0 l 1,21,-1
 384 -128 l 1,22,-1
 256 -128 l 1,23,-1
 256 -0 l 1,24,-1
 126 0 l 1,25,-1
 128 128 l 1,26,-1
 -2 128 l 1,27,-1
 -2 256 l 1,28,-1
 128 256 l 1,29,-1
 128 128 l 1,30,-1
 256 128 l 1,31,-1
 256 384 l 1,32,-1
 126 384 l 1,33,-1
 128 512 l 1,34,-1
 -2 512 l 1,35,-1
 -2 768 l 1,36,-1
 128 768 l 1,37,-1
 126 896 l 1,38,-1
 256 896 l 1,39,-1
 256 1024 l 1,0,-1
128 768 m 1,40,-1
 128 512 l 1,41,-1
 256 512 l 1,42,-1
 256 768 l 1,43,-1
 128 768 l 1,40,-1
EndSplineSet
EndChar

StartChar: agrave
Encoding: 224 224 74
Width: 896
Flags: W
LayerCount: 2
Fore
SplineSet
128 0 m 1,0,-1
 128 128 l 1,1,-1
 0 128 l 1,2,-1
 0 256 l 1,3,-1
 128 256 l 1,4,-1
 128 384 l 1,5,-1
 384 384 l 1,6,-1
 384 512 l 1,7,-1
 128 512 l 1,8,-1
 128 640 l 1,9,-1
 256 640 l 1,10,-1
 256 766 l 1,11,-1
 128 766 l 1,12,-1
 128 896 l 1,13,-1
 256 896 l 1,14,-1
 256 766 l 1,15,-1
 384 766 l 1,16,-1
 384 640 l 1,17,-1
 512 640 l 1,18,-1
 512 512 l 1,19,-1
 640 512 l 1,20,-1
 640 128 l 1,21,-1
 768 128 l 1,22,-1
 768 0 l 1,23,-1
 512 0 l 1,24,-1
 512 128 l 1,25,-1
 384 128 l 1,26,-1
 384 0 l 1,27,-1
 128 0 l 1,0,-1
384 128 m 1,28,-1
 384 256 l 1,29,-1
 256 256 l 1,30,-1
 256 128 l 1,31,-1
 384 128 l 1,28,-1
EndSplineSet
EndChar

StartChar: aacute
Encoding: 225 225 75
Width: 896
Flags: W
LayerCount: 2
Fore
SplineSet
128 0 m 1,0,-1
 128 128 l 1,1,-1
 0 128 l 1,2,-1
 0 256 l 1,3,-1
 128 256 l 1,4,-1
 128 384 l 1,5,-1
 384 384 l 1,6,-1
 384 512 l 1,7,-1
 128 512 l 1,8,-1
 128 640 l 1,9,-1
 384 640 l 1,10,-1
 384 766 l 1,11,-1
 512 766 l 1,12,-1
 512 896 l 1,13,-1
 384 896 l 1,14,-1
 384 766 l 1,15,-1
 256 766 l 1,16,-1
 256 640 l 1,17,-1
 512 640 l 1,18,-1
 512 512 l 1,19,-1
 640 512 l 1,20,-1
 640 128 l 1,21,-1
 768 128 l 1,22,-1
 768 0 l 1,23,-1
 512 0 l 1,24,-1
 512 128 l 1,25,-1
 384 128 l 1,26,-1
 384 0 l 1,27,-1
 128 0 l 1,0,-1
384 128 m 1,28,-1
 384 256 l 1,29,-1
 256 256 l 1,30,-1
 256 128 l 1,31,-1
 384 128 l 1,28,-1
EndSplineSet
EndChar

StartChar: acircumflex
Encoding: 226 226 76
Width: 896
Flags: W
LayerCount: 2
Fore
SplineSet
128 0 m 1,0,-1
 128 128 l 1,1,-1
 0 128 l 1,2,-1
 0 256 l 1,3,-1
 128 256 l 1,4,-1
 128 384 l 1,5,-1
 384 384 l 1,6,-1
 384 512 l 1,7,-1
 128 512 l 1,8,-1
 128 766 l 1,9,-1
 256 766 l 1,10,-1
 256 896 l 1,11,-1
 384 896 l 1,12,-1
 384 766 l 1,13,-1
 256 766 l 1,14,-1
 256 640 l 1,15,-1
 384 640 l 1,16,-1
 384 766 l 1,17,-1
 512 766 l 1,18,-1
 512 512 l 1,19,-1
 640 512 l 1,20,-1
 640 128 l 1,21,-1
 768 128 l 1,22,-1
 768 0 l 1,23,-1
 512 0 l 1,24,-1
 512 128 l 1,25,-1
 384 128 l 1,26,-1
 384 0 l 1,27,-1
 128 0 l 1,0,-1
384 128 m 1,28,-1
 384 256 l 1,29,-1
 256 256 l 1,30,-1
 256 128 l 1,31,-1
 384 128 l 1,28,-1
EndSplineSet
EndChar

StartChar: atilde
Encoding: 227 227 77
Width: 896
Flags: W
LayerCount: 2
Fore
SplineSet
128 0 m 1,0,-1
 128 128 l 1,1,-1
 0 128 l 1,2,-1
 0 256 l 1,3,-1
 128 256 l 1,4,-1
 128 384 l 1,5,-1
 384 384 l 1,6,-1
 384 512 l 1,7,-1
 128 512 l 1,8,-1
 128 766 l 1,9,-1
 256 766 l 1,10,-1
 256 896 l 1,11,-1
 384 896 l 1,12,-1
 384 766 l 1,13,-1
 256 766 l 1,14,-1
 256 640 l 1,15,-1
 384 640 l 1,16,-1
 384 766 l 1,17,-1
 512 766 l 1,18,-1
 512 512 l 1,19,-1
 640 512 l 1,20,-1
 640 128 l 1,21,-1
 768 128 l 1,22,-1
 768 0 l 1,23,-1
 512 0 l 1,24,-1
 512 128 l 1,25,-1
 384 128 l 1,26,-1
 384 0 l 1,27,-1
 128 0 l 1,0,-1
512 896 m 1,28,-1
 640 896 l 1,29,-1
 640 768 l 1,30,-1
 512 768 l 1,31,-1
 512 896 l 1,28,-1
384 128 m 1,32,-1
 384 256 l 1,33,-1
 256 256 l 1,34,-1
 256 128 l 1,35,-1
 384 128 l 1,32,-1
EndSplineSet
EndChar

StartChar: adieresis
Encoding: 228 228 78
Width: 896
Flags: W
LayerCount: 2
Fore
SplineSet
128 0 m 1,0,-1
 128 128 l 1,1,-1
 0 128 l 1,2,-1
 0 256 l 1,3,-1
 128 256 l 1,4,-1
 128 384 l 1,5,-1
 384 384 l 1,6,-1
 384 512 l 1,7,-1
 128 512 l 1,8,-1
 128 640 l 1,9,-1
 512 640 l 1,10,-1
 512 512 l 1,11,-1
 640 512 l 1,12,-1
 640 128 l 1,13,-1
 768 128 l 1,14,-1
 768 0 l 1,15,-1
 512 0 l 1,16,-1
 512 128 l 1,17,-1
 384 128 l 1,18,-1
 384 0 l 1,19,-1
 128 0 l 1,0,-1
128 896 m 1,20,-1
 256 896 l 1,21,-1
 256 766 l 1,22,-1
 128 766 l 1,23,-1
 128 896 l 1,20,-1
384 896 m 1,24,-1
 512 896 l 1,25,-1
 512 768 l 1,26,-1
 384 768 l 1,27,-1
 384 896 l 1,24,-1
384 128 m 1,28,-1
 384 256 l 1,29,-1
 256 256 l 1,30,-1
 256 128 l 1,31,-1
 384 128 l 1,28,-1
EndSplineSet
EndChar

StartChar: aring
Encoding: 229 229 79
Width: 896
Flags: W
LayerCount: 2
Fore
SplineSet
128 0 m 1,0,-1
 128 128 l 1,1,-1
 0 128 l 1,2,-1
 0 256 l 1,3,-1
 128 256 l 1,4,-1
 128 384 l 1,5,-1
 384 384 l 1,6,-1
 384 512 l 1,7,-1
 128 512 l 1,8,-1
 128 640 l 1,9,-1
 512 640 l 1,10,-1
 512 512 l 1,11,-1
 640 512 l 1,12,-1
 640 128 l 1,13,-1
 768 128 l 1,14,-1
 768 0 l 1,15,-1
 512 0 l 1,16,-1
 512 128 l 1,17,-1
 384 128 l 1,18,-1
 384 0 l 1,19,-1
 128 0 l 1,0,-1
256 896 m 1,20,-1
 384 896 l 1,21,-1
 384 768 l 1,22,-1
 256 768 l 1,23,-1
 256 896 l 1,20,-1
384 128 m 1,24,-1
 384 256 l 1,25,-1
 256 256 l 1,26,-1
 256 128 l 1,27,-1
 384 128 l 1,24,-1
EndSplineSet
EndChar

StartChar: ae
Encoding: 230 230 80
Width: 1024
Flags: W
LayerCount: 2
Fore
SplineSet
384 256 m 1,0,-1
 256 256 l 1,1,-1
 256 128 l 1,2,-1
 384 128 l 1,3,-1
 384 256 l 1,0,-1
640 384 m 1,4,-1
 640 512 l 1,5,-1
 512 512 l 1,6,-1
 512 384 l 1,7,-1
 640 384 l 1,4,-1
128 0 m 1,8,-1
 128 128 l 1,9,-1
 0 128 l 1,10,-1
 0 256 l 1,11,-1
 128 256 l 1,12,-1
 128 384 l 1,13,-1
 384 384 l 1,14,-1
 384 512 l 1,15,-1
 128 512 l 1,16,-1
 128 640 l 1,17,-1
 768 640 l 1,18,-1
 768 512 l 1,19,-1
 896 512 l 1,20,-1
 896 256 l 1,21,-1
 512 256 l 1,22,-1
 512 128 l 1,23,-1
 768 128 l 1,24,-1
 768 0 l 1,25,-1
 128 0 l 1,8,-1
EndSplineSet
EndChar

StartChar: ccedilla
Encoding: 231 231 81
Width: 768
Flags: W
LayerCount: 2
Fore
SplineSet
128 0 m 1,0,-1
 128 128 l 1,1,-1
 0 128 l 1,2,-1
 0 512 l 1,3,-1
 128 512 l 1,4,-1
 128 640 l 1,5,-1
 640 640 l 1,6,-1
 640 512 l 1,7,-1
 256 512 l 1,8,-1
 256 128 l 1,9,-1
 640 128 l 1,10,-1
 640 0 l 1,11,-1
 512 0 l 1,12,-1
 512 -128 l 1,13,-1
 384 -128 l 1,14,-1
 384 0 l 1,15,-1
 128 0 l 1,0,-1
EndSplineSet
EndChar

StartChar: egrave
Encoding: 232 232 82
Width: 768
Flags: W
LayerCount: 2
Fore
SplineSet
128 0 m 1,0,-1
 128 128 l 1,1,-1
 0 128 l 1,2,-1
 0 512 l 1,3,-1
 128 512 l 1,4,-1
 128 640 l 1,5,-1
 255 640 l 1,6,-1
 256 768 l 1,7,-1
 128 768 l 1,8,-1
 129 896 l 1,9,-1
 257 896 l 1,10,-1
 256 768 l 1,11,-1
 384 768 l 1,12,-1
 383 640 l 1,13,-1
 512 640 l 1,14,-1
 512 512 l 1,15,-1
 640 512 l 1,16,-1
 640 256 l 1,17,-1
 256 256 l 1,18,-1
 256 128 l 1,19,-1
 512 128 l 1,20,-1
 512 0 l 1,21,-1
 128 0 l 1,0,-1
384 384 m 1,22,-1
 384 512 l 1,23,-1
 256 512 l 1,24,-1
 256 384 l 1,25,-1
 384 384 l 1,22,-1
EndSplineSet
EndChar

StartChar: grave
Encoding: 96 96 83
Width: 384
Flags: W
LayerCount: 2
Fore
SplineSet
0 896 m 1,0,-1
 128 896 l 1,1,-1
 128 768 l 1,2,-1
 0 768 l 1,3,-1
 0 896 l 1,0,-1
128 768 m 1,4,-1
 256 768 l 1,5,-1
 256 640 l 1,6,-1
 128 640 l 1,7,-1
 128 768 l 1,4,-1
EndSplineSet
EndChar

StartChar: acute
Encoding: 180 180 84
Width: 384
Flags: W
LayerCount: 2
Fore
SplineSet
256 896 m 1,0,-1
 256 768 l 1,1,-1
 128 768 l 1,2,-1
 128 896 l 1,3,-1
 256 896 l 1,0,-1
128 768 m 1,4,-1
 128 640 l 1,5,-1
 0 640 l 1,6,-1
 0 768 l 1,7,-1
 128 768 l 1,4,-1
EndSplineSet
EndChar

StartChar: eacute
Encoding: 233 233 85
Width: 768
Flags: W
LayerCount: 2
Fore
SplineSet
512 896 m 1,0,-1
 512 768 l 1,1,-1
 384 768 l 1,2,-1
 384 640 l 1,3,-1
 256 640 l 1,4,-1
 256 768 l 1,5,-1
 384 768 l 1,6,-1
 384 896 l 1,7,-1
 512 896 l 1,0,-1
384 384 m 1,8,-1
 384 512 l 1,9,-1
 256 512 l 1,10,-1
 256 384 l 1,11,-1
 384 384 l 1,8,-1
128 0 m 1,12,-1
 128 128 l 1,13,-1
 0 128 l 1,14,-1
 0 512 l 1,15,-1
 128 512 l 1,16,-1
 128 640 l 1,17,-1
 512 640 l 1,18,-1
 512 512 l 1,19,-1
 640 512 l 1,20,-1
 640 256 l 1,21,-1
 256 256 l 1,22,-1
 256 128 l 1,23,-1
 512 128 l 1,24,-1
 512 0 l 1,25,-1
 128 0 l 1,12,-1
EndSplineSet
EndChar

StartChar: equal
Encoding: 61 61 86
Width: 896
Flags: W
LayerCount: 2
Fore
SplineSet
0 512 m 1,0,-1
 768 512 l 1,1,-1
 768 384 l 1,2,-1
 0 384 l 1,3,-1
 0 512 l 1,0,-1
0 256 m 1,4,-1
 768 256 l 1,5,-1
 768 128 l 1,6,-1
 0 128 l 1,7,-1
 0 256 l 1,4,-1
EndSplineSet
EndChar

StartChar: plus
Encoding: 43 43 87
Width: 896
Flags: W
LayerCount: 2
Fore
SplineSet
256 640 m 1,0,-1
 512 640 l 1,1,-1
 512 384 l 1,2,-1
 768 384 l 1,3,-1
 768 256 l 1,4,-1
 512 256 l 1,5,-1
 512 0 l 1,6,-1
 256 0 l 1,7,-1
 256 256 l 1,8,-1
 0 256 l 1,9,-1
 0 384 l 1,10,-1
 256 384 l 1,11,-1
 256 640 l 1,0,-1
EndSplineSet
EndChar

StartChar: hyphen
Encoding: 45 45 88
Width: 896
Flags: W
LayerCount: 2
Fore
SplineSet
0 384 m 1,0,-1
 768 384 l 1,1,-1
 768 256 l 1,2,-1
 0 256 l 1,3,-1
 0 384 l 1,0,-1
EndSplineSet
EndChar

StartChar: colon
Encoding: 58 58 89
Width: 384
Flags: W
LayerCount: 2
Fore
SplineSet
0 128 m 1,0,-1
 0 256 l 1,1,-1
 256 256 l 1,2,-1
 256 128 l 1,3,-1
 0 128 l 1,0,-1
0 384 m 1,4,-1
 0 512 l 1,5,-1
 256 512 l 1,6,-1
 256 384 l 1,7,-1
 0 384 l 1,4,-1
EndSplineSet
EndChar

StartChar: semicolon
Encoding: 59 59 90
Width: 384
Flags: W
LayerCount: 2
Fore
SplineSet
0 384 m 1,0,-1
 0 512 l 1,1,-1
 256 512 l 1,2,-1
 256 384 l 1,3,-1
 0 384 l 1,0,-1
0 128 m 1,4,-1
 0 256 l 1,5,-1
 256 256 l 1,6,-1
 256 0 l 1,7,-1
 128 0 l 1,8,-1
 128 -128 l 1,9,-1
 0 -128 l 1,10,-1
 0 0 l 1,11,-1
 128 0 l 1,12,-1
 128 128 l 1,13,-1
 0 128 l 1,4,-1
EndSplineSet
EndChar

StartChar: asciicircum
Encoding: 94 94 91
Width: 512
Flags: W
LayerCount: 2
Fore
SplineSet
256 896 m 1,0,-1
 256 768 l 1,1,-1
 128 768 l 1,2,-1
 128 640 l 1,3,-1
 0 640 l 1,4,-1
 0 768 l 1,5,-1
 128 768 l 1,6,-1
 127 896 l 1,7,-1
 256 896 l 1,0,-1
256 768 m 1,8,-1
 384 768 l 1,9,-1
 384 640 l 1,10,-1
 256 640 l 1,11,-1
 256 768 l 1,8,-1
EndSplineSet
EndChar

StartChar: underscore
Encoding: 95 95 92
Width: 896
Flags: W
LayerCount: 2
Fore
SplineSet
0 0 m 1,0,-1
 768 0 l 1,1,-1
 768 -128 l 1,2,-1
 0 -128 l 1,3,-1
 0 0 l 1,0,-1
EndSplineSet
EndChar

StartChar: bar
Encoding: 124 124 93
Width: 256
Flags: W
LayerCount: 2
Fore
SplineSet
0 -127 m 1,0,-1
 0 896 l 1,1,-1
 128 896 l 1,2,-1
 128 -127 l 1,3,-1
 0 -127 l 1,0,-1
EndSplineSet
EndChar

StartChar: braceleft
Encoding: 123 123 94
Width: 640
Flags: W
LayerCount: 2
Fore
SplineSet
384 768 m 1,0,-1
 384 512 l 1,1,-1
 256 512 l 1,2,-1
 256 384 l 1,3,-1
 384 384 l 1,4,-1
 384 128 l 1,5,-1
 512 128 l 1,6,-1
 512 0 l 1,7,-1
 256 0 l 1,8,-1
 256 128 l 1,9,-1
 128 128 l 1,10,-1
 128 384 l 1,11,-1
 0 384 l 1,12,-1
 0 512 l 1,13,-1
 128 512 l 1,14,-1
 128 768 l 1,15,-1
 256 768 l 1,16,-1
 256 896 l 1,17,-1
 512 896 l 1,18,-1
 512 768 l 1,19,-1
 384 768 l 1,0,-1
EndSplineSet
EndChar

StartChar: braceright
Encoding: 125 125 95
Width: 640
Flags: W
LayerCount: 2
Fore
SplineSet
128 768 m 1,0,-1
 0 768 l 1,1,-1
 0 896 l 1,2,-1
 256 896 l 1,3,-1
 256 768 l 1,4,-1
 384 768 l 1,5,-1
 384 512 l 1,6,-1
 512 512 l 1,7,-1
 512 384 l 1,8,-1
 384 384 l 1,9,-1
 384 128 l 1,10,-1
 256 128 l 1,11,-1
 256 0 l 1,12,-1
 0 0 l 1,13,-1
 0 128 l 1,14,-1
 128 128 l 1,15,-1
 128 384 l 1,16,-1
 256 384 l 1,17,-1
 256 512 l 1,18,-1
 128 512 l 1,19,-1
 128 768 l 1,0,-1
EndSplineSet
EndChar

StartChar: ecircumflex
Encoding: 234 234 96
Width: 768
Flags: W
LayerCount: 2
Fore
SplineSet
128 0 m 1,0,-1
 128 128 l 1,1,-1
 0 128 l 1,2,-1
 0 512 l 1,3,-1
 128 512 l 1,4,-1
 128 768 l 1,5,-1
 256 768 l 1,6,-1
 256 640 l 1,7,-1
 384 640 l 1,8,-1
 384 768 l 1,9,-1
 256 768 l 1,10,-1
 256 896 l 1,11,-1
 384 896 l 1,12,-1
 384 768 l 1,13,-1
 512 768 l 1,14,-1
 512 512 l 1,15,-1
 640 512 l 1,16,-1
 640 256 l 1,17,-1
 256 256 l 1,18,-1
 256 128 l 1,19,-1
 512 128 l 1,20,-1
 512 0 l 1,21,-1
 128 0 l 1,0,-1
384 384 m 1,22,-1
 384 512 l 1,23,-1
 256 512 l 1,24,-1
 256 384 l 1,25,-1
 384 384 l 1,22,-1
EndSplineSet
EndChar

StartChar: edieresis
Encoding: 235 235 97
Width: 768
Flags: W
LayerCount: 2
Fore
SplineSet
128 0 m 1,0,-1
 128 128 l 1,1,-1
 0 128 l 1,2,-1
 0 512 l 1,3,-1
 128 512 l 1,4,-1
 128 640 l 1,5,-1
 512 640 l 1,6,-1
 512 512 l 1,7,-1
 640 512 l 1,8,-1
 640 256 l 1,9,-1
 256 256 l 1,10,-1
 256 128 l 1,11,-1
 512 128 l 1,12,-1
 512 0 l 1,13,-1
 128 0 l 1,0,-1
384 384 m 1,14,-1
 384 512 l 1,15,-1
 256 512 l 1,16,-1
 256 384 l 1,17,-1
 384 384 l 1,14,-1
128 896 m 1,18,-1
 256 896 l 1,19,-1
 256 768 l 1,20,-1
 128 768 l 1,21,-1
 128 896 l 1,18,-1
384 896 m 1,22,-1
 512 896 l 1,23,-1
 512 768 l 1,24,-1
 384 768 l 1,25,-1
 384 896 l 1,22,-1
EndSplineSet
EndChar

StartChar: igrave
Encoding: 236 236 98
Width: 384
Flags: W
LayerCount: 2
Fore
SplineSet
0 0 m 1,0,-1
 0 512 l 1,1,-1
 256 512 l 1,2,-1
 256 0 l 1,3,-1
 0 0 l 1,0,-1
0 768 m 1,4,-1
 0 896 l 1,5,-1
 128 896 l 1,6,-1
 128 768 l 1,7,-1
 256 768 l 1,8,-1
 256 640 l 1,9,-1
 128 640 l 1,10,-1
 128 768 l 1,11,-1
 0 768 l 1,4,-1
EndSplineSet
EndChar

StartChar: iacute
Encoding: 237 237 99
Width: 384
Flags: W
LayerCount: 2
Fore
SplineSet
0 640 m 1,0,-1
 0 768 l 1,1,-1
 128 768 l 1,2,-1
 128 640 l 1,3,-1
 0 640 l 1,0,-1
0 0 m 1,4,-1
 0 512 l 1,5,-1
 256 512 l 1,6,-1
 256 0 l 1,7,-1
 0 0 l 1,4,-1
128 768 m 1,8,-1
 128 896 l 1,9,-1
 256 896 l 1,10,-1
 256 768 l 1,11,-1
 128 768 l 1,8,-1
EndSplineSet
EndChar

StartChar: icircumflex
Encoding: 238 238 100
Width: 512
Flags: W
LayerCount: 2
Fore
SplineSet
0 640 m 1,0,-1
 0 768 l 1,1,-1
 128 768 l 1,2,-1
 128 640 l 1,3,-1
 0 640 l 1,0,-1
0 0 m 1,4,-1
 0 512 l 1,5,-1
 256 512 l 1,6,-1
 256 0 l 1,7,-1
 0 0 l 1,4,-1
128 768 m 1,8,-1
 128 896 l 1,9,-1
 256 896 l 1,10,-1
 256 768 l 1,11,-1
 128 768 l 1,8,-1
256 768 m 1,12,-1
 384 768 l 1,13,-1
 384 640 l 1,14,-1
 256 640 l 1,15,-1
 256 768 l 1,12,-1
EndSplineSet
EndChar

StartChar: idieresis
Encoding: 239 239 101
Width: 512
Flags: W
LayerCount: 2
Fore
SplineSet
0 640 m 1,0,-1
 0 768 l 1,1,-1
 128 768 l 1,2,-1
 128 640 l 1,3,-1
 0 640 l 1,0,-1
0 0 m 1,4,-1
 0 512 l 1,5,-1
 256 512 l 1,6,-1
 256 0 l 1,7,-1
 0 0 l 1,4,-1
256 640 m 1,8,-1
 256 768 l 1,9,-1
 384 768 l 1,10,-1
 384 640 l 1,11,-1
 256 640 l 1,8,-1
EndSplineSet
EndChar

StartChar: exclamdown
Encoding: 161 161 102
Width: 512
Flags: W
LayerCount: 2
Fore
SplineSet
128 768 m 1,0,-1
 384 768 l 1,1,-1
 384 640 l 1,2,-1
 128 640 l 1,3,-1
 128 768 l 1,0,-1
128 512 m 1,4,-1
 384 512 l 1,5,-1
 384 -128 l 1,6,-1
 127 -128 l 1,7,-1
 128 512 l 1,4,-1
EndSplineSet
EndChar

StartChar: Agrave
Encoding: 192 192 103
Width: 896
Flags: W
LayerCount: 2
Fore
SplineSet
0 0 m 1,0,-1
 0 384 l 1,1,-1
 128 384 l 1,2,-1
 128 512 l 1,3,-1
 256 512 l 1,4,-1
 256 640 l 1,5,-1
 384 640 l 1,6,-1
 384 768 l 1,7,-1
 256 768 l 1,8,-1
 256 896 l 1,9,-1
 384 896 l 1,10,-1
 384 768 l 1,11,-1
 512 768 l 1,12,-1
 512 512 l 1,13,-1
 256 512 l 1,14,-1
 256 256 l 1,15,-1
 512 256 l 1,16,-1
 512 512 l 1,17,-1
 640 512 l 1,18,-1
 640 384 l 1,19,-1
 768 384 l 1,20,-1
 768 0 l 1,21,-1
 512 0 l 1,22,-1
 512 128 l 1,23,-1
 256 128 l 1,24,-1
 256 0 l 1,25,-1
 0 0 l 1,0,-1
EndSplineSet
EndChar

StartChar: Aacute
Encoding: 193 193 104
Width: 896
Flags: W
LayerCount: 2
Fore
SplineSet
0 0 m 1,0,-1
 0 384 l 1,1,-1
 128 384 l 1,2,-1
 128 512 l 1,3,-1
 256 512 l 1,4,-1
 256 640 l 1,5,-1
 384 640 l 1,6,-1
 384 768 l 1,7,-1
 512 768 l 1,8,-1
 512 896 l 1,9,-1
 384 896 l 1,10,-1
 384 768 l 1,11,-1
 256 768 l 1,12,-1
 256 640 l 1,13,-1
 512 640 l 1,14,-1
 512 512 l 1,15,-1
 256 512 l 1,16,-1
 256 256 l 1,17,-1
 512 256 l 1,18,-1
 512 512 l 1,19,-1
 640 512 l 1,20,-1
 640 384 l 1,21,-1
 768 384 l 1,22,-1
 768 0 l 1,23,-1
 512 0 l 1,24,-1
 512 128 l 1,25,-1
 256 128 l 1,26,-1
 256 0 l 1,27,-1
 0 0 l 1,0,-1
EndSplineSet
EndChar

StartChar: Acircumflex
Encoding: 194 194 105
Width: 896
Flags: W
LayerCount: 2
Fore
SplineSet
0 0 m 1,0,-1
 0 384 l 1,1,-1
 128 384 l 1,2,-1
 128 512 l 1,3,-1
 256 512 l 1,4,-1
 256 640 l 1,5,-1
 512 640 l 1,6,-1
 512 512 l 1,7,-1
 256 512 l 1,8,-1
 256 256 l 1,9,-1
 512 256 l 1,10,-1
 512 512 l 1,11,-1
 640 512 l 1,12,-1
 640 384 l 1,13,-1
 768 384 l 1,14,-1
 768 0 l 1,15,-1
 512 0 l 1,16,-1
 512 128 l 1,17,-1
 256 128 l 1,18,-1
 256 0 l 1,19,-1
 0 0 l 1,0,-1
512 896 m 1,20,-1
 512 768 l 1,21,-1
 256 768 l 1,22,-1
 256 896 l 1,23,-1
 512 896 l 1,20,-1
256 640 m 1,24,-1
 128 640 l 1,25,-1
 128 768 l 1,26,-1
 256 768 l 1,27,-1
 256 640 l 1,24,-1
512 640 m 1,28,-1
 512 768 l 1,29,-1
 640 768 l 1,30,-1
 640 640 l 1,31,-1
 512 640 l 1,28,-1
EndSplineSet
EndChar

StartChar: Atilde
Encoding: 195 195 106
Width: 896
Flags: W
LayerCount: 2
Fore
SplineSet
0 0 m 1,0,-1
 0 384 l 1,1,-1
 128 384 l 1,2,-1
 128 512 l 1,3,-1
 256 512 l 1,4,-1
 256 640 l 1,5,-1
 512 640 l 1,6,-1
 512 512 l 1,7,-1
 256 512 l 1,8,-1
 256 256 l 1,9,-1
 512 256 l 1,10,-1
 512 512 l 1,11,-1
 640 512 l 1,12,-1
 640 384 l 1,13,-1
 768 384 l 1,14,-1
 768 0 l 1,15,-1
 512 0 l 1,16,-1
 512 128 l 1,17,-1
 256 128 l 1,18,-1
 256 0 l 1,19,-1
 0 0 l 1,0,-1
384 896 m 1,20,-1
 384 768 l 1,21,-1
 256 768 l 1,22,-1
 256 896 l 1,23,-1
 384 896 l 1,20,-1
640 896 m 1,24,-1
 640 768 l 1,25,-1
 512 768 l 1,26,-1
 512 896 l 1,27,-1
 640 896 l 1,24,-1
256 640 m 1,28,-1
 128 640 l 1,29,-1
 128 768 l 1,30,-1
 256 768 l 1,31,-1
 256 640 l 1,28,-1
512 640 m 1,32,-1
 384 640 l 1,33,-1
 384 768 l 1,34,-1
 512 768 l 1,35,-1
 512 640 l 1,32,-1
EndSplineSet
EndChar

StartChar: Adieresis
Encoding: 196 196 107
Width: 896
Flags: W
LayerCount: 2
Fore
SplineSet
0 0 m 1,0,-1
 0 384 l 1,1,-1
 128 384 l 1,2,-1
 128 512 l 1,3,-1
 256 512 l 1,4,-1
 256 640 l 1,5,-1
 512 640 l 1,6,-1
 512 512 l 1,7,-1
 256 512 l 1,8,-1
 256 256 l 1,9,-1
 512 256 l 1,10,-1
 512 512 l 1,11,-1
 640 512 l 1,12,-1
 640 384 l 1,13,-1
 768 384 l 1,14,-1
 768 0 l 1,15,-1
 512 0 l 1,16,-1
 512 128 l 1,17,-1
 256 128 l 1,18,-1
 256 0 l 1,19,-1
 0 0 l 1,0,-1
256 896 m 1,20,-1
 256 768 l 1,21,-1
 128 768 l 1,22,-1
 128 896 l 1,23,-1
 256 896 l 1,20,-1
640 896 m 1,24,-1
 640 768 l 1,25,-1
 512 768 l 1,26,-1
 512 896 l 1,27,-1
 640 896 l 1,24,-1
EndSplineSet
EndChar

StartChar: Aring
Encoding: 197 197 108
Width: 896
Flags: W
LayerCount: 2
Fore
SplineSet
256 768 m 1,0,-1
 256 896 l 1,1,-1
 512 896 l 1,2,-1
 512 768 l 1,3,-1
 256 768 l 1,0,-1
0 0 m 1,4,-1
 0 384 l 1,5,-1
 128 384 l 1,6,-1
 128 512 l 1,7,-1
 256 512 l 1,8,-1
 256 256 l 1,9,-1
 512 256 l 1,10,-1
 512 512 l 1,11,-1
 640 512 l 1,12,-1
 640 384 l 1,13,-1
 768 384 l 1,14,-1
 768 0 l 1,15,-1
 512 0 l 1,16,-1
 512 128 l 1,17,-1
 256 128 l 1,18,-1
 256 0 l 1,19,-1
 0 0 l 1,4,-1
512 512 m 1,20,-1
 256 512 l 1,21,-1
 256 640 l 1,22,-1
 512 640 l 1,23,-1
 512 512 l 1,20,-1
EndSplineSet
EndChar

StartChar: AE
Encoding: 198 198 109
Width: 1024
Flags: W
LayerCount: 2
Fore
SplineSet
0 0 m 1,0,-1
 0 640 l 1,1,-1
 128 640 l 1,2,-1
 128 768 l 1,3,-1
 256 768 l 1,4,-1
 256 384 l 1,5,-1
 384 384 l 1,6,-1
 384 768 l 1,7,-1
 256 768 l 1,8,-1
 256 896 l 1,9,-1
 896 896 l 1,10,-1
 896 768 l 1,11,-1
 640 768 l 1,12,-1
 640 512 l 1,13,-1
 768 512 l 1,14,-1
 768 384 l 1,15,-1
 640 384 l 1,16,-1
 640 128 l 1,17,-1
 896 128 l 1,18,-1
 896 0 l 1,19,-1
 384 0 l 1,20,-1
 384 256 l 1,21,-1
 256 256 l 1,22,-1
 256 0 l 1,23,-1
 0 0 l 1,0,-1
EndSplineSet
EndChar

StartChar: Ccedilla
Encoding: 199 199 110
Width: 896
Flags: W
LayerCount: 2
Fore
SplineSet
128 0 m 1,0,-1
 128 128 l 1,1,-1
 0 128 l 1,2,-1
 0 768 l 1,3,-1
 128 768 l 1,4,-1
 128 896 l 1,5,-1
 640 896 l 1,6,-1
 640 768 l 1,7,-1
 768 768 l 1,8,-1
 768 640 l 1,9,-1
 512 640 l 1,10,-1
 512 768 l 1,11,-1
 256 768 l 1,12,-1
 256 128 l 1,13,-1
 512 128 l 1,14,-1
 512 256 l 1,15,-1
 768 256 l 1,16,-1
 768 128 l 1,17,-1
 640 128 l 1,18,-1
 640 0 l 1,19,-1
 512 0 l 1,20,-1
 512 -128 l 1,21,-1
 384 -128 l 1,22,-1
 384 0 l 1,23,-1
 128 0 l 1,0,-1
EndSplineSet
EndChar

StartChar: Egrave
Encoding: 200 200 111
Width: 896
Flags: W
LayerCount: 2
Fore
SplineSet
0 0 m 1,0,-1
 0 640 l 1,1,-1
 384 640 l 1,2,-1
 384 768 l 1,3,-1
 256 768 l 1,4,-1
 256 896 l 1,5,-1
 384 896 l 1,6,-1
 384 768 l 1,7,-1
 512 768 l 1,8,-1
 512 640 l 1,9,-1
 768 640 l 1,10,-1
 768 512 l 1,11,-1
 256 512 l 1,12,-1
 256 384 l 1,13,-1
 640 384 l 1,14,-1
 640 256 l 1,15,-1
 256 256 l 1,16,-1
 256 128 l 1,17,-1
 768 128 l 1,18,-1
 768 0 l 1,19,-1
 0 0 l 1,0,-1
EndSplineSet
EndChar

StartChar: Eacute
Encoding: 201 201 112
Width: 896
Flags: W
LayerCount: 2
Fore
SplineSet
0 0 m 1,0,-1
 0 640 l 1,1,-1
 384 640 l 1,2,-1
 384 768 l 1,3,-1
 512 768 l 1,4,-1
 512 896 l 1,5,-1
 384 896 l 1,6,-1
 384 768 l 1,7,-1
 256 768 l 1,8,-1
 256 640 l 1,9,-1
 768 640 l 1,10,-1
 768 512 l 1,11,-1
 256 512 l 1,12,-1
 256 384 l 1,13,-1
 640 384 l 1,14,-1
 640 256 l 1,15,-1
 256 256 l 1,16,-1
 256 128 l 1,17,-1
 768 128 l 1,18,-1
 768 0 l 1,19,-1
 0 0 l 1,0,-1
EndSplineSet
EndChar

StartChar: Ecircumflex
Encoding: 202 202 113
Width: 896
Flags: W
LayerCount: 2
Fore
SplineSet
0 0 m 1,0,-1
 0 640 l 1,1,-1
 384 640 l 1,2,-1
 384 768 l 1,3,-1
 512 768 l 1,4,-1
 512 896 l 1,5,-1
 384 896 l 1,6,-1
 384 768 l 1,7,-1
 256 768 l 1,8,-1
 256 640 l 1,9,-1
 640 640 l 1,10,-1
 640 768 l 1,11,-1
 512 768 l 1,12,-1
 512 640 l 1,13,-1
 768 640 l 1,14,-1
 768 512 l 1,15,-1
 256 512 l 1,16,-1
 256 384 l 1,17,-1
 640 384 l 1,18,-1
 640 256 l 1,19,-1
 256 256 l 1,20,-1
 256 128 l 1,21,-1
 768 128 l 1,22,-1
 768 0 l 1,23,-1
 0 0 l 1,0,-1
EndSplineSet
EndChar

StartChar: Edieresis
Encoding: 203 203 114
Width: 896
Flags: W
LayerCount: 2
Fore
SplineSet
0 0 m 1,0,-1
 0 640 l 1,1,-1
 768 640 l 1,2,-1
 768 512 l 1,3,-1
 256 512 l 1,4,-1
 256 384 l 1,5,-1
 640 384 l 1,6,-1
 640 256 l 1,7,-1
 256 256 l 1,8,-1
 256 128 l 1,9,-1
 768 128 l 1,10,-1
 768 0 l 1,11,-1
 0 0 l 1,0,-1
384 896 m 1,12,-1
 384 768 l 1,13,-1
 256 768 l 1,14,-1
 256 896 l 1,15,-1
 384 896 l 1,12,-1
640 896 m 1,16,-1
 640 768 l 1,17,-1
 512 768 l 1,18,-1
 512 896 l 1,19,-1
 640 896 l 1,16,-1
EndSplineSet
EndChar

StartChar: bracketleft
Encoding: 91 91 115
Width: 896
Flags: W
LayerCount: 2
Fore
SplineSet
0 0 m 1,0,-1
 0 896 l 1,1,-1
 512 896 l 1,2,-1
 512 768 l 1,3,-1
 256 768 l 1,4,-1
 256 128 l 1,5,-1
 512 128 l 1,6,-1
 512 0 l 1,7,-1
 0 0 l 1,0,-1
EndSplineSet
EndChar

StartChar: bracketright
Encoding: 93 93 116
Width: 896
Flags: W
LayerCount: 2
Fore
SplineSet
512 0 m 1,0,-1
 0 0 l 1,1,-1
 0 128 l 1,2,-1
 256 128 l 1,3,-1
 256 768 l 1,4,-1
 0 768 l 1,5,-1
 0 896 l 1,6,-1
 512 896 l 1,7,-1
 512 0 l 1,0,-1
EndSplineSet
EndChar

StartChar: comma
Encoding: 44 44 117
Width: 384
Flags: W
LayerCount: 2
Fore
SplineSet
0 128 m 1,0,-1
 0 256 l 1,1,-1
 256 256 l 1,2,-1
 256 0 l 1,3,-1
 128 0 l 1,4,-1
 128 -128 l 1,5,-1
 0 -128 l 1,6,-1
 0 0 l 1,7,-1
 128 0 l 1,8,-1
 128 128 l 1,9,-1
 0 128 l 1,0,-1
EndSplineSet
EndChar

StartChar: at
Encoding: 64 64 118
Width: 1152
Flags: W
LayerCount: 2
Fore
SplineSet
512 128 m 1,0,-1
 512 0 l 1,1,-1
 384 0 l 1,2,-1
 384 128 l 1,3,-1
 512 128 l 1,0,-1
512 128 m 1,4,-1
 512 256 l 1,5,-1
 384 256 l 1,6,-1
 384 128 l 1,7,-1
 256 128 l 1,8,-1
 256 256 l 1,9,-1
 384 256 l 1,10,-1
 384 384 l 1,11,-1
 512 384 l 1,12,-1
 512 512 l 1,13,-1
 384 512 l 1,14,-1
 384 640 l 1,15,-1
 640 640 l 1,16,-1
 640 512 l 1,17,-1
 768 512 l 1,18,-1
 768 128 l 1,19,-1
 896 128 l 1,20,-1
 896 0 l 1,21,-1
 640 0 l 1,22,-1
 640 128 l 1,23,-1
 512 128 l 1,4,-1
768 640 m 1,24,-1
 768 768 l 1,25,-1
 256 768 l 1,26,-1
 256 896 l 1,27,-1
 768 896 l 1,28,-1
 768 768 l 1,29,-1
 896 768 l 1,30,-1
 896 640 l 1,31,-1
 768 640 l 1,24,-1
896 640 m 1,32,-1
 1024 640 l 1,33,-1
 1024 129 l 1,34,-1
 896 129 l 1,35,-1
 896 640 l 1,32,-1
256 640 m 1,36,-1
 128 640 l 1,37,-1
 128 768 l 1,38,-1
 256 768 l 1,39,-1
 256 640 l 1,36,-1
128 -128 m 1,40,-1
 128 0 l 1,41,-1
 256 0 l 1,42,-1
 256 -128 l 1,43,-1
 128 -128 l 1,40,-1
128 0 m 1,44,-1
 0 0 l 1,45,-1
 0 640 l 1,46,-1
 128 640 l 1,47,-1
 128 0 l 1,44,-1
EndSplineSet
EndChar

StartChar: less
Encoding: 60 60 119
Width: 768
Flags: W
LayerCount: 2
Fore
SplineSet
128 256 m 1,0,-1
 0 256 l 1,1,-1
 0 512 l 1,2,-1
 128 512 l 1,3,-1
 128 384 l 1,4,-1
 384 384 l 1,5,-1
 384 256 l 1,6,-1
 640 256 l 1,7,-1
 640 0 l 1,8,-1
 384 0 l 1,9,-1
 384 128 l 1,10,-1
 128 128 l 1,11,-1
 128 256 l 1,0,-1
384 768 m 1,12,-1
 640 768 l 1,13,-1
 640 640 l 1,14,-1
 384 640 l 1,15,-1
 384 768 l 1,12,-1
128 512 m 1,16,-1
 128 640 l 1,17,-1
 384 640 l 1,18,-1
 384 512 l 1,19,-1
 128 512 l 1,16,-1
EndSplineSet
EndChar

StartChar: slash
Encoding: 47 47 120
Width: 768
Flags: W
LayerCount: 2
Fore
SplineSet
384 896 m 1,0,-1
 640 896 l 1,1,-1
 639 640 l 1,2,-1
 512 640 l 1,3,-1
 511 384 l 1,4,-1
 384 384 l 1,5,-1
 383 128 l 1,6,-1
 256 128 l 1,7,-1
 255 -128 l 1,8,-1
 0 -128 l 1,9,-1
 0 128 l 1,10,-1
 128 128 l 1,11,-1
 128 384 l 1,12,-1
 256 384 l 1,13,-1
 256 640 l 1,14,-1
 384 640 l 1,15,-1
 384 896 l 1,0,-1
EndSplineSet
EndChar

StartChar: backslash
Encoding: 92 92 121
Width: 768
Flags: W
LayerCount: 2
Fore
SplineSet
256 896 m 1,0,-1
 256 640 l 1,1,-1
 384 640 l 1,2,-1
 384 384 l 1,3,-1
 512 384 l 1,4,-1
 512 128 l 1,5,-1
 640 128 l 1,6,-1
 640 -128 l 1,7,-1
 385 -128 l 1,8,-1
 384 128 l 1,9,-1
 257 128 l 1,10,-1
 256 384 l 1,11,-1
 129 384 l 1,12,-1
 128 640 l 1,13,-1
 1 640 l 1,14,-1
 0 896 l 1,15,-1
 256 896 l 1,0,-1
EndSplineSet
EndChar

StartChar: quotedbl
Encoding: 34 34 122
Width: 512
Flags: W
LayerCount: 2
Fore
SplineSet
128 896 m 1,0,-1
 128 640 l 1,1,-1
 0 640 l 1,2,-1
 0 896 l 1,3,-1
 128 896 l 1,0,-1
384 896 m 1,4,-1
 384 640 l 1,5,-1
 256 640 l 1,6,-1
 256 896 l 1,7,-1
 384 896 l 1,4,-1
EndSplineSet
EndChar

StartChar: copyright
Encoding: 169 169 123
Width: 1152
Flags: W
LayerCount: 2
Fore
SplineSet
768 640 m 1,0,-1
 768 768 l 1,1,-1
 256 768 l 1,2,-1
 256 896 l 1,3,-1
 768 896 l 1,4,-1
 768 768 l 1,5,-1
 896 768 l 1,6,-1
 896 640 l 1,7,-1
 1024 640 l 1,8,-1
 1024 128 l 1,9,-1
 896 128 l 1,10,-1
 896 640 l 1,11,-1
 768 640 l 1,0,-1
256 640 m 1,12,-1
 128 640 l 1,13,-1
 128 768 l 1,14,-1
 256 768 l 1,15,-1
 256 640 l 1,12,-1
128 0 m 1,16,-1
 128 128 l 1,17,-1
 256 128 l 1,18,-1
 256 0 l 1,19,-1
 128 0 l 1,16,-1
128 128 m 1,20,-1
 0 128 l 1,21,-1
 0 640 l 1,22,-1
 128 640 l 1,23,-1
 128 128 l 1,20,-1
896 128 m 1,24,-1
 896 0 l 1,25,-1
 768 0 l 1,26,-1
 768 128 l 1,27,-1
 896 128 l 1,24,-1
768 0 m 1,28,-1
 768 -128 l 1,29,-1
 256 -128 l 1,30,-1
 256 0 l 1,31,-1
 768 0 l 1,28,-1
384 512 m 1,32,-1
 384 256 l 1,33,-1
 640 256 l 1,34,-1
 640 128 l 1,35,-1
 384 128 l 1,36,-1
 384 256 l 1,37,-1
 256 256 l 1,38,-1
 256 512 l 1,39,-1
 384 512 l 1,32,-1
384 512 m 1,40,-1
 384 640 l 1,41,-1
 640 640 l 1,42,-1
 640 512 l 1,43,-1
 384 512 l 1,40,-1
EndSplineSet
EndChar

StartChar: brokenbar
Encoding: 166 166 124
Width: 256
Flags: W
LayerCount: 2
Fore
SplineSet
0 512 m 1,0,-1
 0 896 l 1,1,-1
 128 896 l 1,2,-1
 128 512 l 1,3,-1
 0 512 l 1,0,-1
0 -128 m 1,4,-1
 0 256 l 1,5,-1
 128 256 l 1,6,-1
 128 -128 l 1,7,-1
 0 -128 l 1,4,-1
EndSplineSet
EndChar

StartChar: yen
Encoding: 165 165 125
Width: 896
Flags: W
LayerCount: 2
Fore
SplineSet
256 128 m 1,0,-1
 128 128 l 1,1,-1
 128 256 l 1,2,-1
 256 256 l 1,3,-1
 256 384 l 1,4,-1
 128 384 l 1,5,-1
 128 512 l 1,6,-1
 0 512 l 1,7,-1
 0 896 l 1,8,-1
 256 896 l 1,9,-1
 256 512 l 1,10,-1
 512 512 l 1,11,-1
 512 896 l 1,12,-1
 768 896 l 1,13,-1
 768 512 l 1,14,-1
 640 512 l 1,15,-1
 640 384 l 1,16,-1
 512 384 l 1,17,-1
 512 256 l 1,18,-1
 640 256 l 1,19,-1
 640 128 l 1,20,-1
 512 128 l 1,21,-1
 512 0 l 1,22,-1
 256 0 l 1,23,-1
 256 128 l 1,0,-1
EndSplineSet
EndChar

StartChar: cent
Encoding: 162 162 126
Width: 768
Flags: W
LayerCount: 2
Fore
SplineSet
128 0 m 1,0,-1
 128 128 l 1,1,-1
 0 128 l 1,2,-1
 0 512 l 1,3,-1
 128 512 l 1,4,-1
 128 640 l 1,5,-1
 384 640 l 1,6,-1
 384 768 l 1,7,-1
 512 768 l 1,8,-1
 512 640 l 1,9,-1
 640 640 l 1,10,-1
 640 512 l 1,11,-1
 256 512 l 1,12,-1
 256 128 l 1,13,-1
 640 128 l 1,14,-1
 640 0 l 1,15,-1
 512 0 l 1,16,-1
 512 -128 l 1,17,-1
 384 -128 l 1,18,-1
 384 0 l 1,19,-1
 128 0 l 1,0,-1
EndSplineSet
EndChar

StartChar: dieresis
Encoding: 168 168 127
Width: 512
Flags: W
LayerCount: 2
Fore
SplineSet
256 768 m 1,0,-1
 384 768 l 1,1,-1
 384 640 l 1,2,-1
 256 640 l 1,3,-1
 256 768 l 1,0,-1
0 768 m 1,4,-1
 128 768 l 1,5,-1
 128 640 l 1,6,-1
 0 640 l 1,7,-1
 0 768 l 1,4,-1
EndSplineSet
EndChar

StartChar: section
Encoding: 167 167 128
Width: 896
Flags: W
LayerCount: 2
Fore
SplineSet
256 384 m 1,0,-1
 511 384 l 1,1,-1
 513 512 l 1,2,-1
 256 512 l 1,3,-1
 256 384 l 1,0,-1
128 0 m 1,4,-1
 128 128 l 1,5,-1
 512 128 l 1,6,-1
 512 256 l 1,7,-1
 128 256 l 1,8,-1
 128 384 l 1,9,-1
 0 384 l 1,10,-1
 0 768 l 1,11,-1
 128 768 l 1,12,-1
 128 896 l 1,13,-1
 640 896 l 1,14,-1
 640 768 l 1,15,-1
 256 768 l 1,16,-1
 256 640 l 1,17,-1
 638 640 l 1,18,-1
 640 512 l 1,19,-1
 768 512 l 1,20,-1
 768 128 l 1,21,-1
 640 128 l 1,22,-1
 640 0 l 1,23,-1
 128 0 l 1,4,-1
EndSplineSet
EndChar

StartChar: plusminus
Encoding: 177 177 129
Width: 896
Flags: W
LayerCount: 2
Fore
SplineSet
256 640 m 1,0,-1
 512 640 l 1,1,-1
 512 384 l 1,2,-1
 768 384 l 1,3,-1
 768 256 l 1,4,-1
 512 256 l 1,5,-1
 512 0 l 1,6,-1
 768 0 l 1,7,-1
 768 -128 l 1,8,-1
 0 -128 l 1,9,-1
 0 0 l 1,10,-1
 256 0 l 1,11,-1
 256 256 l 1,12,-1
 0 256 l 1,13,-1
 0 384 l 1,14,-1
 256 384 l 1,15,-1
 256 640 l 1,0,-1
EndSplineSet
EndChar

StartChar: questiondown
Encoding: 191 191 130
Width: 896
Flags: W
LayerCount: 2
Fore
SplineSet
512 768 m 1,0,-1
 512 640 l 1,1,-1
 256 640 l 1,2,-1
 256 768 l 1,3,-1
 512 768 l 1,0,-1
768 256 m 1,4,-1
 768 0 l 1,5,-1
 640 0 l 1,6,-1
 640 -128 l 1,7,-1
 128 -128 l 1,8,-1
 128 0 l 1,9,-1
 0 0 l 1,10,-1
 0 256 l 1,11,-1
 128 256 l 1,12,-1
 128 384 l 1,13,-1
 256 384 l 1,14,-1
 256 512 l 1,15,-1
 512 512 l 1,16,-1
 512 384 l 1,17,-1
 384 384 l 1,18,-1
 384 256 l 1,19,-1
 256 256 l 1,20,-1
 256 0 l 1,21,-1
 513 0 l 1,22,-1
 513 256 l 1,23,-1
 768 256 l 1,4,-1
EndSplineSet
EndChar

StartChar: sterling
Encoding: 163 163 131
Width: 1024
Flags: W
LayerCount: 2
Fore
SplineSet
640 256 m 1,0,-1
 896 256 l 1,1,-1
 896 128 l 1,2,-1
 768 128 l 1,3,-1
 768 0 l 1,4,-1
 0 0 l 1,5,-1
 0 128 l 1,6,-1
 128 128 l 1,7,-1
 128 384 l 1,8,-1
 0 384 l 1,9,-1
 0 512 l 1,10,-1
 128 512 l 1,11,-1
 128 768 l 1,12,-1
 256 768 l 1,13,-1
 256 896 l 1,14,-1
 512 896 l 1,15,-1
 512 768 l 1,16,-1
 384 768 l 1,17,-1
 384 512 l 1,18,-1
 512 512 l 1,19,-1
 512 384 l 1,20,-1
 384 384 l 1,21,-1
 384 128 l 1,22,-1
 640 128 l 1,23,-1
 640 256 l 1,0,-1
EndSplineSet
EndChar

StartChar: registered
Encoding: 174 174 132
Width: 1152
Flags: W
LayerCount: 2
Fore
SplineSet
768 512 m 1,0,-1
 768 384 l 1,1,-1
 640 384 l 1,2,-1
 640 512 l 1,3,-1
 768 512 l 1,0,-1
768 128 m 1,4,-1
 640 128 l 1,5,-1
 640 256 l 1,6,-1
 768 256 l 1,7,-1
 768 128 l 1,4,-1
768 128 m 1,8,-1
 896 128 l 1,9,-1
 896 0 l 1,10,-1
 768 0 l 1,11,-1
 768 -128 l 1,12,-1
 256 -128 l 1,13,-1
 256 0 l 1,14,-1
 768 0 l 1,15,-1
 768 128 l 1,8,-1
896 128 m 1,16,-1
 896 640 l 1,17,-1
 768 640 l 1,18,-1
 768 768 l 1,19,-1
 896 768 l 1,20,-1
 896 640 l 1,21,-1
 1024 640 l 1,22,-1
 1024 128 l 1,23,-1
 896 128 l 1,16,-1
640 512 m 1,24,-1
 384 512 l 1,25,-1
 384 384 l 1,26,-1
 640 384 l 1,27,-1
 640 256 l 1,28,-1
 384 256 l 1,29,-1
 384 128 l 1,30,-1
 256 128 l 1,31,-1
 256 640 l 1,32,-1
 640 640 l 1,33,-1
 640 512 l 1,24,-1
768 768 m 1,34,-1
 256 768 l 1,35,-1
 256 640 l 1,36,-1
 128 640 l 1,37,-1
 128 128 l 1,38,-1
 0 128 l 1,39,-1
 0 640 l 1,40,-1
 128 640 l 1,41,-1
 128 768 l 1,42,-1
 256 768 l 1,43,-1
 256 896 l 1,44,-1
 768 896 l 1,45,-1
 768 768 l 1,34,-1
128 128 m 1,46,-1
 256 128 l 1,47,-1
 256 0 l 1,48,-1
 128 0 l 1,49,-1
 128 128 l 1,46,-1
EndSplineSet
EndChar

StartChar: macron
Encoding: 175 175 133
Width: 896
Flags: W
LayerCount: 2
Fore
SplineSet
0 896 m 1,0,-1
 768 896 l 1,1,-1
 768 768 l 1,2,-1
 0 768 l 1,3,-1
 0 896 l 1,0,-1
EndSplineSet
EndChar

StartChar: mu
Encoding: 181 181 134
Width: 768
Flags: W
LayerCount: 2
Fore
SplineSet
384 128 m 1,0,-1
 384 640 l 1,1,-1
 640 640 l 1,2,-1
 640 0 l 1,3,-1
 512 0 l 1,4,-1
 512 128 l 1,5,-1
 384 128 l 1,0,-1
384 128 m 1,6,-1
 384 0 l 1,7,-1
 128 0 l 1,8,-1
 128 -128 l 1,9,-1
 0 -128 l 1,10,-1
 0 640 l 1,11,-1
 128 640 l 1,12,-1
 128 128 l 1,13,-1
 384 128 l 1,6,-1
EndSplineSet
EndChar

StartChar: paragraph
Encoding: 182 182 135
Width: 1024
Flags: W
LayerCount: 2
Fore
SplineSet
256 512 m 1,0,-1
 256 768 l 1,1,-1
 384 768 l 1,2,-1
 384 512 l 1,3,-1
 256 512 l 1,0,-1
512 512 m 1,4,-1
 512 768 l 1,5,-1
 640 768 l 1,6,-1
 640 512 l 1,7,-1
 512 512 l 1,4,-1
768 768 m 1,8,-1
 768 896 l 1,9,-1
 896 896 l 1,10,-1
 896 768 l 1,11,-1
 768 768 l 1,8,-1
768 0 m 1,12,-1
 768 896 l 1,13,-1
 128 896 l 1,14,-1
 128 768 l 1,15,-1
 0 768 l 1,16,-1
 0 512 l 1,17,-1
 128 512 l 1,18,-1
 128 384 l 1,19,-1
 384 384 l 1,20,-1
 384 0 l 1,21,-1
 256 0 l 1,22,-1
 256 128 l 1,23,-1
 384 128 l 1,24,-1
 384 0 l 1,25,-1
 512 0 l 1,26,-1
 512 128 l 1,27,-1
 640 128 l 1,28,-1
 640 0 l 1,29,-1
 512 0 l 1,30,-1
 512 384 l 1,31,-1
 640 384 l 1,32,-1
 640 0 l 1,33,-1
 768 0 l 1,34,-1
 768 128 l 1,35,-1
 896 128 l 1,36,-1
 896 0 l 1,37,-1
 768 0 l 1,12,-1
EndSplineSet
EndChar

StartChar: periodcentered
Encoding: 183 183 136
Width: 384
Flags: W
LayerCount: 2
Fore
SplineSet
0 256 m 1,0,-1
 0 512 l 1,1,-1
 256 512 l 1,2,-1
 256 256 l 1,3,-1
 0 256 l 1,0,-1
EndSplineSet
EndChar

StartChar: cedilla
Encoding: 184 184 137
Width: 256
Flags: W
LayerCount: 2
Fore
SplineSet
0 128 m 1,0,-1
 128 128 l 1,1,-1
 128 -128 l 1,2,-1
 0 -128 l 1,3,-1
 0 128 l 1,0,-1
EndSplineSet
EndChar

StartChar: Igrave
Encoding: 204 204 138
Width: 640
Flags: W
LayerCount: 2
Fore
SplineSet
0 0 m 1,0,-1
 0 128 l 1,1,-1
 128 128 l 1,2,-1
 128 512 l 1,3,-1
 0 512 l 1,4,-1
 0 640 l 1,5,-1
 255 640 l 1,6,-1
 256 768 l 1,7,-1
 128 768 l 1,8,-1
 128 896 l 1,9,-1
 257 896 l 1,10,-1
 256 768 l 1,11,-1
 384 768 l 1,12,-1
 383 640 l 1,13,-1
 512 640 l 1,14,-1
 512 512 l 1,15,-1
 384 512 l 1,16,-1
 384 128 l 1,17,-1
 512 128 l 1,18,-1
 512 0 l 1,19,-1
 0 0 l 1,0,-1
EndSplineSet
EndChar

StartChar: Iacute
Encoding: 205 205 139
Width: 640
Flags: W
LayerCount: 2
Fore
SplineSet
0 0 m 1,0,-1
 0 128 l 1,1,-1
 128 128 l 1,2,-1
 128 512 l 1,3,-1
 0 512 l 1,4,-1
 0 640 l 1,5,-1
 257 640 l 1,6,-1
 256 768 l 1,7,-1
 384 768 l 1,8,-1
 384 896 l 1,9,-1
 255 896 l 1,10,-1
 256 768 l 1,11,-1
 128 768 l 1,12,-1
 129 640 l 1,13,-1
 512 640 l 1,14,-1
 512 512 l 1,15,-1
 384 512 l 1,16,-1
 384 128 l 1,17,-1
 512 128 l 1,18,-1
 512 0 l 1,19,-1
 0 0 l 1,0,-1
EndSplineSet
EndChar

StartChar: Icircumflex
Encoding: 206 206 140
Width: 640
Flags: W
LayerCount: 2
Fore
SplineSet
0 0 m 1,0,-1
 0 128 l 1,1,-1
 128 128 l 1,2,-1
 128 512 l 1,3,-1
 0 512 l 1,4,-1
 0 640 l 1,5,-1
 128 640 l 1,6,-1
 127 768 l 1,7,-1
 384 768 l 1,8,-1
 384 896 l 1,9,-1
 127 896 l 1,10,-1
 127 768 l 1,11,-1
 0 768 l 1,12,-1
 0 640 l 1,13,-1
 384 640 l 1,14,-1
 384 768 l 1,15,-1
 512 768 l 1,16,-1
 512 512 l 1,17,-1
 384 512 l 1,18,-1
 384 128 l 1,19,-1
 512 128 l 1,20,-1
 512 0 l 1,21,-1
 0 0 l 1,0,-1
EndSplineSet
EndChar

StartChar: Idieresis
Encoding: 207 207 141
Width: 640
Flags: W
LayerCount: 2
Fore
SplineSet
0 0 m 1,0,-1
 0 128 l 1,1,-1
 128 128 l 1,2,-1
 128 512 l 1,3,-1
 0 512 l 1,4,-1
 0 640 l 1,5,-1
 512 640 l 1,6,-1
 512 512 l 1,7,-1
 384 512 l 1,8,-1
 384 128 l 1,9,-1
 512 128 l 1,10,-1
 512 0 l 1,11,-1
 0 0 l 1,0,-1
0 896 m 1,12,-1
 128 896 l 1,13,-1
 128 768 l 1,14,-1
 0 768 l 1,15,-1
 0 896 l 1,12,-1
384 896 m 1,16,-1
 512 896 l 1,17,-1
 512 768 l 1,18,-1
 384 768 l 1,19,-1
 384 896 l 1,16,-1
EndSplineSet
EndChar

StartChar: Eth
Encoding: 208 208 142
Width: 896
Flags: W
LayerCount: 2
Fore
SplineSet
128 384 m 1,0,-1
 0 384 l 1,1,-1
 0 512 l 1,2,-1
 128 512 l 1,3,-1
 128 896 l 1,4,-1
 640 896 l 1,5,-1
 640 768 l 1,6,-1
 768 768 l 1,7,-1
 768 128 l 1,8,-1
 640 128 l 1,9,-1
 640 0 l 1,10,-1
 128 0 l 1,11,-1
 128 384 l 1,0,-1
512 128 m 1,12,-1
 512 768 l 1,13,-1
 256 768 l 1,14,-1
 256 512 l 1,15,-1
 384 512 l 1,16,-1
 384 384 l 1,17,-1
 256 384 l 1,18,-1
 256 128 l 1,19,-1
 512 128 l 1,12,-1
EndSplineSet
EndChar

StartChar: Ntilde
Encoding: 209 209 143
Width: 896
Flags: W
LayerCount: 2
Fore
SplineSet
0 0 m 1,0,-1
 0 640 l 1,1,-1
 256 640 l 1,2,-1
 256 512 l 1,3,-1
 384 512 l 1,4,-1
 384 384 l 1,5,-1
 512 384 l 1,6,-1
 512 256 l 1,7,-1
 640 256 l 1,8,-1
 640 640 l 1,9,-1
 642 640 l 1,10,-1
 642 768 l 1,11,-1
 770 768 l 1,12,-1
 770 896 l 1,13,-1
 641 896 l 1,14,-1
 642 768 l 1,15,-1
 514 768 l 1,16,-1
 514 896 l 1,17,-1
 385 896 l 1,18,-1
 386 768 l 1,19,-1
 258 768 l 1,20,-1
 258 640 l 1,21,-1
 386 640 l 1,22,-1
 386 768 l 1,23,-1
 514 768 l 1,24,-1
 514 640 l 1,25,-1
 768 640 l 1,26,-1
 768 0 l 1,27,-1
 512 0 l 1,28,-1
 512 128 l 1,29,-1
 384 128 l 1,30,-1
 384 256 l 1,31,-1
 256 256 l 1,32,-1
 256 0 l 1,33,-1
 0 0 l 1,0,-1
EndSplineSet
EndChar

StartChar: asciitilde
Encoding: 126 126 144
Width: 640
Flags: W
LayerCount: 2
Fore
SplineSet
256 384 m 1,0,-1
 256 256 l 1,1,-1
 128 256 l 1,2,-1
 128 128 l 1,3,-1
 0 128 l 1,4,-1
 0 256 l 1,5,-1
 128 256 l 1,6,-1
 127 384 l 1,7,-1
 256 384 l 1,0,-1
512 384 m 1,8,-1
 512 256 l 1,9,-1
 384 256 l 1,10,-1
 384 128 l 1,11,-1
 256 128 l 1,12,-1
 256 256 l 1,13,-1
 384 256 l 1,14,-1
 383 384 l 1,15,-1
 512 384 l 1,8,-1
EndSplineSet
EndChar

StartChar: quotesingle
Encoding: 39 39 145
Width: 256
Flags: W
LayerCount: 2
Fore
SplineSet
128 896 m 1,0,-1
 128 640 l 1,1,-1
 0 640 l 1,2,-1
 0 896 l 1,3,-1
 128 896 l 1,0,-1
EndSplineSet
EndChar

StartChar: percent
Encoding: 37 37 146
Width: 1664
Flags: W
LayerCount: 2
Fore
SplineSet
896 896 m 1,0,-1
 1025 896 l 1,1,-1
 1024 640 l 1,2,-1
 897 640 l 1,3,-1
 896 384 l 1,4,-1
 769 384 l 1,5,-1
 768 128 l 1,6,-1
 641 128 l 1,7,-1
 640 -128 l 1,8,-1
 512 -128 l 1,9,-1
 512 128 l 1,10,-1
 640 128 l 1,11,-1
 640 384 l 1,12,-1
 768 384 l 1,13,-1
 768 640 l 1,14,-1
 896 640 l 1,15,-1
 896 896 l 1,0,-1
128 384 m 1,16,-1
 128 512 l 1,17,-1
 0 512 l 1,18,-1
 0 768 l 1,19,-1
 128 768 l 1,20,-1
 128 896 l 1,21,-1
 512 896 l 1,22,-1
 512 768 l 1,23,-1
 640 768 l 1,24,-1
 640 512 l 1,25,-1
 512 512 l 1,26,-1
 512 384 l 1,27,-1
 128 384 l 1,16,-1
384 512 m 1,28,-1
 384 768 l 1,29,-1
 256 768 l 1,30,-1
 256 512 l 1,31,-1
 384 512 l 1,28,-1
1024 -128 m 1,32,-1
 1024 0 l 1,33,-1
 896 0 l 1,34,-1
 896 256 l 1,35,-1
 1024 256 l 1,36,-1
 1024 384 l 1,37,-1
 1408 384 l 1,38,-1
 1408 256 l 1,39,-1
 1536 256 l 1,40,-1
 1536 0 l 1,41,-1
 1408 0 l 1,42,-1
 1408 -128 l 1,43,-1
 1024 -128 l 1,32,-1
1280 0 m 1,44,-1
 1280 256 l 1,45,-1
 1152 256 l 1,46,-1
 1152 0 l 1,47,-1
 1280 0 l 1,44,-1
EndSplineSet
EndChar

StartChar: Ograve
Encoding: 210 210 147
Width: 896
Flags: W
LayerCount: 2
Fore
SplineSet
128 0 m 1,0,-1
 128 128 l 1,1,-1
 0 128 l 1,2,-1
 0 512 l 1,3,-1
 128 512 l 1,4,-1
 128 640 l 1,5,-1
 384 640 l 1,6,-1
 384 768 l 1,7,-1
 256 768 l 1,8,-1
 256 896 l 1,9,-1
 384 896 l 1,10,-1
 384 768 l 1,11,-1
 512 768 l 1,12,-1
 512 640 l 1,13,-1
 640 640 l 1,14,-1
 640 512 l 1,15,-1
 768 512 l 1,16,-1
 768 128 l 1,17,-1
 640 128 l 1,18,-1
 640 0 l 1,19,-1
 128 0 l 1,0,-1
512 128 m 1,20,-1
 512 512 l 1,21,-1
 256 512 l 1,22,-1
 256 128 l 1,23,-1
 512 128 l 1,20,-1
EndSplineSet
EndChar

StartChar: Oacute
Encoding: 211 211 148
Width: 896
Flags: W
LayerCount: 2
Fore
SplineSet
128 0 m 1,0,-1
 128 128 l 1,1,-1
 0 128 l 1,2,-1
 0 512 l 1,3,-1
 128 512 l 1,4,-1
 128 640 l 1,5,-1
 384 640 l 1,6,-1
 384 768 l 1,7,-1
 512 768 l 1,8,-1
 512 896 l 1,9,-1
 384 896 l 1,10,-1
 384 768 l 1,11,-1
 256 768 l 1,12,-1
 256 640 l 1,13,-1
 640 640 l 1,14,-1
 640 512 l 1,15,-1
 768 512 l 1,16,-1
 768 128 l 1,17,-1
 640 128 l 1,18,-1
 640 0 l 1,19,-1
 128 0 l 1,0,-1
512 128 m 1,20,-1
 512 512 l 1,21,-1
 256 512 l 1,22,-1
 256 128 l 1,23,-1
 512 128 l 1,20,-1
EndSplineSet
EndChar

StartChar: Oslash
Encoding: 216 216 149
Width: 896
Flags: W
LayerCount: 2
Fore
SplineSet
256 256 m 1,0,-1
 256 128 l 1,1,-1
 512 128 l 1,2,-1
 512 384 l 1,3,-1
 384 384 l 1,4,-1
 384 512 l 1,5,-1
 512 512 l 1,6,-1
 512 640 l 1,7,-1
 256 640 l 1,8,-1
 256 384 l 1,9,-1
 384 384 l 1,10,-1
 384 256 l 1,11,-1
 256 256 l 1,0,-1
640 896 m 1,12,-1
 768 896 l 1,13,-1
 768 768 l 1,14,-1
 640 768 l 1,15,-1
 640 896 l 1,12,-1
128 0 m 1,16,-1
 128 -128 l 1,17,-1
 0 -128 l 1,18,-1
 0 0 l 1,19,-1
 128 0 l 1,16,-1
128 0 m 1,20,-1
 128 128 l 1,21,-1
 0 128 l 1,22,-1
 0 640 l 1,23,-1
 128 640 l 1,24,-1
 128 768 l 1,25,-1
 640 768 l 1,26,-1
 640 640 l 1,27,-1
 768 640 l 1,28,-1
 768 128 l 1,29,-1
 640 128 l 1,30,-1
 640 0 l 1,31,-1
 128 0 l 1,20,-1
EndSplineSet
EndChar

StartChar: multiply
Encoding: 215 215 150
Width: 896
Flags: W
LayerCount: 2
Fore
SplineSet
0 0 m 1,0,-1
 0 128 l 1,1,-1
 128 128 l 1,2,-1
 128 256 l 1,3,-1
 256 256 l 1,4,-1
 256 384 l 1,5,-1
 128 384 l 1,6,-1
 128 512 l 1,7,-1
 0 512 l 1,8,-1
 0 640 l 1,9,-1
 256 640 l 1,10,-1
 256 512 l 1,11,-1
 512 512 l 1,12,-1
 512 640 l 1,13,-1
 768 640 l 1,14,-1
 768 512 l 1,15,-1
 640 512 l 1,16,-1
 640 384 l 1,17,-1
 512 384 l 1,18,-1
 512 256 l 1,19,-1
 640 256 l 1,20,-1
 640 128 l 1,21,-1
 768 128 l 1,22,-1
 768 0 l 1,23,-1
 512 0 l 1,24,-1
 512 128 l 1,25,-1
 256 128 l 1,26,-1
 256 0 l 1,27,-1
 0 0 l 1,0,-1
EndSplineSet
EndChar

StartChar: Otilde
Encoding: 213 213 151
Width: 896
Flags: W
LayerCount: 2
Fore
SplineSet
128 0 m 1,0,-1
 128 128 l 1,1,-1
 0 128 l 1,2,-1
 0 512 l 1,3,-1
 128 512 l 1,4,-1
 128 640 l 1,5,-1
 384 640 l 1,6,-1
 384 768 l 1,7,-1
 512 768 l 1,8,-1
 512 896 l 1,9,-1
 384 896 l 1,10,-1
 384 768 l 1,11,-1
 256 768 l 1,12,-1
 256 640 l 1,13,-1
 640 640 l 1,14,-1
 640 512 l 1,15,-1
 768 512 l 1,16,-1
 768 128 l 1,17,-1
 640 128 l 1,18,-1
 640 0 l 1,19,-1
 128 0 l 1,0,-1
512 128 m 1,20,-1
 512 512 l 1,21,-1
 256 512 l 1,22,-1
 256 128 l 1,23,-1
 512 128 l 1,20,-1
768 896 m 1,24,-1
 768 768 l 1,25,-1
 640 768 l 1,26,-1
 640 896 l 1,27,-1
 768 896 l 1,24,-1
640 640 m 1,28,-1
 512 640 l 1,29,-1
 512 768 l 1,30,-1
 640 768 l 1,31,-1
 640 640 l 1,28,-1
EndSplineSet
EndChar

StartChar: Ocircumflex
Encoding: 212 212 152
Width: 896
Flags: W
LayerCount: 2
Fore
SplineSet
128 0 m 1,0,-1
 128 128 l 1,1,-1
 0 128 l 1,2,-1
 0 512 l 1,3,-1
 128 512 l 1,4,-1
 128 640 l 1,5,-1
 256 640 l 1,6,-1
 256 768 l 1,7,-1
 512 768 l 1,8,-1
 512 896 l 1,9,-1
 256 896 l 1,10,-1
 256 768 l 1,11,-1
 128 768 l 1,12,-1
 128 640 l 1,13,-1
 512 640 l 1,14,-1
 512 768 l 1,15,-1
 640 768 l 1,16,-1
 640 512 l 1,17,-1
 768 512 l 1,18,-1
 768 128 l 1,19,-1
 640 128 l 1,20,-1
 640 0 l 1,21,-1
 128 0 l 1,0,-1
512 128 m 1,22,-1
 512 512 l 1,23,-1
 256 512 l 1,24,-1
 256 128 l 1,25,-1
 512 128 l 1,22,-1
EndSplineSet
EndChar

StartChar: Odieresis
Encoding: 214 214 153
Width: 896
Flags: W
LayerCount: 2
Fore
SplineSet
128 0 m 1,0,-1
 128 128 l 1,1,-1
 0 128 l 1,2,-1
 0 512 l 1,3,-1
 128 512 l 1,4,-1
 128 640 l 1,5,-1
 640 640 l 1,6,-1
 640 512 l 1,7,-1
 768 512 l 1,8,-1
 768 128 l 1,9,-1
 640 128 l 1,10,-1
 640 0 l 1,11,-1
 128 0 l 1,0,-1
512 128 m 1,12,-1
 512 512 l 1,13,-1
 256 512 l 1,14,-1
 256 128 l 1,15,-1
 512 128 l 1,12,-1
128 896 m 1,16,-1
 256 896 l 1,17,-1
 256 768 l 1,18,-1
 128 768 l 1,19,-1
 128 896 l 1,16,-1
512 896 m 1,20,-1
 640 896 l 1,21,-1
 640 768 l 1,22,-1
 512 768 l 1,23,-1
 512 896 l 1,20,-1
EndSplineSet
EndChar

StartChar: Ugrave
Encoding: 217 217 154
Width: 896
Flags: W
LayerCount: 2
Fore
SplineSet
128 0 m 1,0,-1
 128 128 l 1,1,-1
 0 128 l 1,2,-1
 0 640 l 1,3,-1
 256 640 l 1,4,-1
 256 128 l 1,5,-1
 512 128 l 1,6,-1
 512 640 l 1,7,-1
 768 640 l 1,8,-1
 768 128 l 1,9,-1
 640 128 l 1,10,-1
 640 0 l 1,11,-1
 128 0 l 1,0,-1
256 896 m 1,12,-1
 384 896 l 1,13,-1
 384 768 l 1,14,-1
 256 768 l 1,15,-1
 256 896 l 1,12,-1
512 640 m 1,16,-1
 384 640 l 1,17,-1
 384 768 l 1,18,-1
 512 768 l 1,19,-1
 512 640 l 1,16,-1
EndSplineSet
EndChar

StartChar: Uacute
Encoding: 218 218 155
Width: 896
Flags: W
LayerCount: 2
Fore
SplineSet
128 0 m 1,0,-1
 128 128 l 1,1,-1
 0 128 l 1,2,-1
 0 640 l 1,3,-1
 256 640 l 1,4,-1
 256 128 l 1,5,-1
 512 128 l 1,6,-1
 512 640 l 1,7,-1
 768 640 l 1,8,-1
 768 128 l 1,9,-1
 640 128 l 1,10,-1
 640 0 l 1,11,-1
 128 0 l 1,0,-1
512 896 m 1,12,-1
 512 768 l 1,13,-1
 384 768 l 1,14,-1
 384 896 l 1,15,-1
 512 896 l 1,12,-1
256 640 m 1,16,-1
 256 768 l 1,17,-1
 384 768 l 1,18,-1
 384 640 l 1,19,-1
 256 640 l 1,16,-1
EndSplineSet
EndChar

StartChar: Udieresis
Encoding: 220 220 156
Width: 896
Flags: W
LayerCount: 2
Fore
SplineSet
128 0 m 1,0,-1
 128 128 l 1,1,-1
 0 128 l 1,2,-1
 0 640 l 1,3,-1
 256 640 l 1,4,-1
 256 128 l 1,5,-1
 512 128 l 1,6,-1
 512 640 l 1,7,-1
 768 640 l 1,8,-1
 768 128 l 1,9,-1
 640 128 l 1,10,-1
 640 0 l 1,11,-1
 128 0 l 1,0,-1
128 896 m 1,12,-1
 256 896 l 1,13,-1
 256 768 l 1,14,-1
 128 768 l 1,15,-1
 128 896 l 1,12,-1
512 896 m 1,16,-1
 640 896 l 1,17,-1
 640 768 l 1,18,-1
 512 768 l 1,19,-1
 512 896 l 1,16,-1
EndSplineSet
EndChar

StartChar: Yacute
Encoding: 221 221 157
Width: 896
Flags: W
LayerCount: 2
Fore
SplineSet
256 0 m 1,0,-1
 256 256 l 1,1,-1
 128 256 l 1,2,-1
 128 384 l 1,3,-1
 0 384 l 1,4,-1
 0 640 l 1,5,-1
 256 640 l 1,6,-1
 256 384 l 1,7,-1
 512 384 l 1,8,-1
 512 640 l 1,9,-1
 768 640 l 1,10,-1
 768 384 l 1,11,-1
 640 384 l 1,12,-1
 640 256 l 1,13,-1
 512 256 l 1,14,-1
 512 0 l 1,15,-1
 256 0 l 1,0,-1
512 896 m 1,16,-1
 512 768 l 1,17,-1
 384 768 l 1,18,-1
 384 896 l 1,19,-1
 512 896 l 1,16,-1
256 640 m 1,20,-1
 256 768 l 1,21,-1
 384 768 l 1,22,-1
 384 640 l 1,23,-1
 256 640 l 1,20,-1
EndSplineSet
EndChar

StartChar: Ucircumflex
Encoding: 219 219 158
Width: 896
Flags: W
LayerCount: 2
Fore
SplineSet
128 0 m 1,0,-1
 128 128 l 1,1,-1
 0 128 l 1,2,-1
 0 640 l 1,3,-1
 256 640 l 1,4,-1
 256 128 l 1,5,-1
 512 128 l 1,6,-1
 512 768 l 1,7,-1
 640 768 l 1,8,-1
 640 640 l 1,9,-1
 768 640 l 1,10,-1
 768 128 l 1,11,-1
 640 128 l 1,12,-1
 640 0 l 1,13,-1
 128 0 l 1,0,-1
512 896 m 1,14,-1
 512 768 l 1,15,-1
 256 768 l 1,16,-1
 256 896 l 1,17,-1
 512 896 l 1,14,-1
256 640 m 1,18,-1
 128 640 l 1,19,-1
 128 768 l 1,20,-1
 256 768 l 1,21,-1
 256 640 l 1,18,-1
EndSplineSet
EndChar

StartChar: ntilde
Encoding: 241 241 159
Width: 768
Flags: W
LayerCount: 2
Fore
SplineSet
0 0 m 1,0,-1
 0 512 l 1,1,-1
 512 512 l 1,2,-1
 512 384 l 1,3,-1
 256 384 l 1,4,-1
 256 0 l 1,5,-1
 0 0 l 1,0,-1
256 896 m 1,6,-1
 256 768 l 1,7,-1
 128 768 l 1,8,-1
 128 640 l 1,9,-1
 0 640 l 1,10,-1
 0 768 l 1,11,-1
 128 768 l 1,12,-1
 127 896 l 1,13,-1
 256 896 l 1,6,-1
512 896 m 1,14,-1
 512 768 l 1,15,-1
 384 768 l 1,16,-1
 384 640 l 1,17,-1
 256 640 l 1,18,-1
 256 768 l 1,19,-1
 384 768 l 1,20,-1
 383 896 l 1,21,-1
 512 896 l 1,14,-1
512 384 m 1,22,-1
 640 384 l 1,23,-1
 640 0 l 1,24,-1
 512 0 l 1,25,-1
 512 384 l 1,22,-1
EndSplineSet
EndChar

StartChar: ograve
Encoding: 242 242 160
Width: 768
Flags: W
LayerCount: 2
Fore
SplineSet
128 0 m 1,0,-1
 128 128 l 1,1,-1
 0 128 l 1,2,-1
 0 512 l 1,3,-1
 128 512 l 1,4,-1
 128 640 l 1,5,-1
 256 640 l 1,6,-1
 256 768 l 1,7,-1
 128 768 l 1,8,-1
 128 896 l 1,9,-1
 256 896 l 1,10,-1
 256 768 l 1,11,-1
 384 768 l 1,12,-1
 384 640 l 1,13,-1
 512 640 l 1,14,-1
 512 512 l 1,15,-1
 640 512 l 1,16,-1
 640 128 l 1,17,-1
 512 128 l 1,18,-1
 512 0 l 1,19,-1
 128 0 l 1,0,-1
384 128 m 1,20,-1
 384 512 l 1,21,-1
 256 512 l 1,22,-1
 256 128 l 1,23,-1
 384 128 l 1,20,-1
EndSplineSet
EndChar

StartChar: oacute
Encoding: 243 243 161
Width: 768
Flags: W
LayerCount: 2
Fore
SplineSet
128 0 m 1,0,-1
 128 128 l 1,1,-1
 0 128 l 1,2,-1
 0 512 l 1,3,-1
 128 512 l 1,4,-1
 128 640 l 1,5,-1
 384 640 l 1,6,-1
 384 768 l 1,7,-1
 512 768 l 1,8,-1
 512 896 l 1,9,-1
 384 896 l 1,10,-1
 384 768 l 1,11,-1
 256 768 l 1,12,-1
 256 640 l 1,13,-1
 512 640 l 1,14,-1
 512 512 l 1,15,-1
 640 512 l 1,16,-1
 640 128 l 1,17,-1
 512 128 l 1,18,-1
 512 0 l 1,19,-1
 128 0 l 1,0,-1
384 128 m 1,20,-1
 384 512 l 1,21,-1
 256 512 l 1,22,-1
 256 128 l 1,23,-1
 384 128 l 1,20,-1
EndSplineSet
EndChar

StartChar: ocircumflex
Encoding: 244 244 162
Width: 768
Flags: W
LayerCount: 2
Fore
SplineSet
128 0 m 1,0,-1
 128 128 l 1,1,-1
 0 128 l 1,2,-1
 0 512 l 1,3,-1
 128 512 l 1,4,-1
 128 640 l 1,5,-1
 256 640 l 1,6,-1
 256 768 l 1,7,-1
 384 768 l 1,8,-1
 384 896 l 1,9,-1
 256 896 l 1,10,-1
 256 768 l 1,11,-1
 128 768 l 1,12,-1
 128 640 l 1,13,-1
 384 640 l 1,14,-1
 384 768 l 1,15,-1
 512 768 l 1,16,-1
 512 512 l 1,17,-1
 640 512 l 1,18,-1
 640 128 l 1,19,-1
 512 128 l 1,20,-1
 512 0 l 1,21,-1
 128 0 l 1,0,-1
384 128 m 1,22,-1
 384 512 l 1,23,-1
 256 512 l 1,24,-1
 256 128 l 1,25,-1
 384 128 l 1,22,-1
EndSplineSet
EndChar

StartChar: otilde
Encoding: 245 245 163
Width: 768
Flags: W
LayerCount: 2
Fore
SplineSet
128 0 m 1,0,-1
 128 128 l 1,1,-1
 0 128 l 1,2,-1
 0 512 l 1,3,-1
 128 512 l 1,4,-1
 128 640 l 1,5,-1
 256 640 l 1,6,-1
 256 768 l 1,7,-1
 384 768 l 1,8,-1
 384 896 l 1,9,-1
 256 896 l 1,10,-1
 256 768 l 1,11,-1
 128 768 l 1,12,-1
 128 640 l 1,13,-1
 384 640 l 1,14,-1
 384 768 l 1,15,-1
 512 768 l 1,16,-1
 512 512 l 1,17,-1
 640 512 l 1,18,-1
 640 128 l 1,19,-1
 512 128 l 1,20,-1
 512 0 l 1,21,-1
 128 0 l 1,0,-1
384 128 m 1,22,-1
 384 512 l 1,23,-1
 256 512 l 1,24,-1
 256 128 l 1,25,-1
 384 128 l 1,22,-1
512 768 m 1,26,-1
 512 896 l 1,27,-1
 640 896 l 1,28,-1
 640 768 l 1,29,-1
 512 768 l 1,26,-1
EndSplineSet
EndChar

StartChar: odieresis
Encoding: 246 246 164
Width: 768
Flags: W
LayerCount: 2
Fore
SplineSet
128 896 m 1025,0,-1
128 0 m 1,1,-1
 128 128 l 1,2,-1
 0 128 l 1,3,-1
 0 512 l 1,4,-1
 128 512 l 1,5,-1
 128 640 l 1,6,-1
 512 640 l 1,7,-1
 512 512 l 1,8,-1
 640 512 l 1,9,-1
 640 128 l 1,10,-1
 512 128 l 1,11,-1
 512 0 l 1,12,-1
 128 0 l 1,1,-1
384 128 m 1,13,-1
 384 512 l 1,14,-1
 256 512 l 1,15,-1
 256 128 l 1,16,-1
 384 128 l 1,13,-1
128 896 m 1,17,-1
 256 896 l 1,18,-1
 256 768 l 1,19,-1
 128 768 l 1,20,-1
 128 896 l 1,17,-1
384 768 m 1,21,-1
 384 896 l 1,22,-1
 512 896 l 1,23,-1
 512 768 l 1,24,-1
 384 768 l 1,21,-1
EndSplineSet
EndChar

StartChar: divide
Encoding: 247 247 165
Width: 896
Flags: W
LayerCount: 2
Fore
SplineSet
0 384 m 1,0,-1
 768 384 l 1,1,-1
 768 256 l 1,2,-1
 0 256 l 1,3,-1
 0 384 l 1,0,-1
256 0 m 1,4,-1
 256 128 l 1,5,-1
 512 128 l 1,6,-1
 512 0 l 1,7,-1
 256 0 l 1,4,-1
256 512 m 1,8,-1
 256 640 l 1,9,-1
 512 640 l 1,10,-1
 512 512 l 1,11,-1
 256 512 l 1,8,-1
EndSplineSet
EndChar

StartChar: oslash
Encoding: 248 248 166
Width: 1024
Flags: W
LayerCount: 2
Fore
SplineSet
512 384 m 1,0,-1
 512 512 l 1,1,-1
 384 512 l 1,2,-1
 384 384 l 1,3,-1
 512 384 l 1,0,-1
384 256 m 1,4,-1
 384 128 l 1,5,-1
 512 128 l 1,6,-1
 512 256 l 1,7,-1
 384 256 l 1,4,-1
768 640 m 1,8,-1
 896 640 l 1,9,-1
 896 512 l 1,10,-1
 768 512 l 1,11,-1
 768 640 l 1,8,-1
256 0 m 1,12,-1
 256 128 l 1,13,-1
 128 128 l 1,14,-1
 128 0 l 1,15,-1
 0 0 l 1,16,-1
 0 128 l 1,17,-1
 128 128 l 1,18,-1
 128 512 l 1,19,-1
 256 512 l 1,20,-1
 256 640 l 1,21,-1
 640 640 l 1,22,-1
 640 512 l 1,23,-1
 768 512 l 1,24,-1
 768 128 l 1,25,-1
 640 128 l 1,26,-1
 640 0 l 1,27,-1
 256 0 l 1,12,-1
EndSplineSet
EndChar

StartChar: ugrave
Encoding: 249 249 167
Width: 768
Flags: W
LayerCount: 2
Fore
SplineSet
128 0 m 1,0,-1
 128 128 l 1,1,-1
 0 128 l 1,2,-1
 0 640 l 1,3,-1
 256 640 l 1,4,-1
 256 128 l 1,5,-1
 384 128 l 1,6,-1
 384 640 l 1,7,-1
 640 640 l 1,8,-1
 640 0 l 1,9,-1
 128 0 l 1,0,-1
128 896 m 1,10,-1
 256 896 l 1,11,-1
 256 768 l 1,12,-1
 128 768 l 1,13,-1
 128 896 l 1,10,-1
256 640 m 1,14,-1
 256 768 l 1,15,-1
 384 768 l 1,16,-1
 384 640 l 1,17,-1
 256 640 l 1,14,-1
EndSplineSet
EndChar

StartChar: uacute
Encoding: 250 250 168
Width: 768
Flags: W
LayerCount: 2
Fore
SplineSet
128 0 m 1,0,-1
 128 128 l 1,1,-1
 0 128 l 1,2,-1
 0 640 l 1,3,-1
 256 640 l 1,4,-1
 256 128 l 1,5,-1
 384 128 l 1,6,-1
 384 640 l 1,7,-1
 640 640 l 1,8,-1
 640 0 l 1,9,-1
 128 0 l 1,0,-1
512 896 m 1,10,-1
 512 768 l 1,11,-1
 384 768 l 1,12,-1
 384 896 l 1,13,-1
 512 896 l 1,10,-1
384 640 m 1,14,-1
 256 640 l 1,15,-1
 256 768 l 1,16,-1
 384 768 l 1,17,-1
 384 640 l 1,14,-1
EndSplineSet
EndChar

StartChar: ucircumflex
Encoding: 251 251 169
Width: 768
Flags: W
LayerCount: 2
Fore
SplineSet
128 0 m 1,0,-1
 128 128 l 1,1,-1
 0 128 l 1,2,-1
 0 640 l 1,3,-1
 256 640 l 1,4,-1
 256 128 l 1,5,-1
 384 128 l 1,6,-1
 384 768 l 1,7,-1
 512 768 l 1,8,-1
 512 640 l 1,9,-1
 640 640 l 1,10,-1
 640 0 l 1,11,-1
 128 0 l 1,0,-1
384 896 m 1,12,-1
 384 768 l 1,13,-1
 256 768 l 1,14,-1
 256 640 l 1,15,-1
 128 640 l 1,16,-1
 128 768 l 1,17,-1
 256 768 l 1,18,-1
 255 896 l 1,19,-1
 384 896 l 1,12,-1
EndSplineSet
EndChar

StartChar: udieresis
Encoding: 252 252 170
Width: 768
Flags: W
LayerCount: 2
Fore
SplineSet
130 0 m 1,0,-1
 130 128 l 1,1,-1
 2 128 l 1,2,-1
 2 640 l 1,3,-1
 258 640 l 1,4,-1
 258 128 l 1,5,-1
 386 128 l 1,6,-1
 386 640 l 1,7,-1
 642 640 l 1,8,-1
 642 0 l 1,9,-1
 130 0 l 1,0,-1
384 896 m 1,10,-1
 512 896 l 1,11,-1
 512 768 l 1,12,-1
 384 768 l 1,13,-1
 384 896 l 1,10,-1
128 896 m 1,14,-1
 256 896 l 1,15,-1
 256 768 l 1,16,-1
 128 768 l 1,17,-1
 128 896 l 1,14,-1
EndSplineSet
EndChar

StartChar: Thorn
Encoding: 222 222 171
Width: 768
Flags: W
LayerCount: 2
Fore
SplineSet
0 -128 m 1,0,-1
 0 896 l 1,1,-1
 256 896 l 1,2,-1
 256 768 l 1,3,-1
 512 768 l 1,4,-1
 512 640 l 1,5,-1
 640 640 l 1,6,-1
 640 256 l 1,7,-1
 512 256 l 1,8,-1
 512 128 l 1,9,-1
 256 128 l 1,10,-1
 256 -128 l 1,11,-1
 0 -128 l 1,0,-1
384 256 m 1,12,-1
 384 640 l 1,13,-1
 256 640 l 1,14,-1
 256 256 l 1,15,-1
 384 256 l 1,12,-1
EndSplineSet
EndChar

StartChar: germandbls
Encoding: 223 223 172
Width: 896
Flags: W
LayerCount: 2
Fore
SplineSet
640 0 m 1,0,-1
 384 0 l 1,1,-1
 384 128 l 1,2,-1
 512 128 l 1,3,-1
 512 512 l 1,4,-1
 256 512 l 1,5,-1
 256 -128 l 1,6,-1
 0 -128 l 1,7,-1
 0 896 l 1,8,-1
 640 896 l 1,9,-1
 640 768 l 1,10,-1
 768 768 l 1,11,-1
 768 640 l 1,12,-1
 640 640 l 1,13,-1
 640 512 l 1,14,-1
 768 512 l 1,15,-1
 768 128 l 1,16,-1
 640 128 l 1,17,-1
 640 0 l 1,0,-1
512 640 m 1,18,-1
 512 768 l 1,19,-1
 256 768 l 1,20,-1
 256 640 l 1,21,-1
 512 640 l 1,18,-1
EndSplineSet
EndChar

StartChar: thorn
Encoding: 254 254 173
Width: 768
Flags: W
LayerCount: 2
Fore
SplineSet
0 -128 m 1,0,-1
 0 896 l 1,1,-1
 256 896 l 1,2,-1
 256 640 l 1,3,-1
 512 640 l 1,4,-1
 512 512 l 1,5,-1
 640 512 l 1,6,-1
 640 256 l 1,7,-1
 512 256 l 1,8,-1
 512 128 l 1,9,-1
 256 128 l 1,10,-1
 256 -128 l 1,11,-1
 0 -128 l 1,0,-1
384 256 m 1,12,-1
 384 512 l 1,13,-1
 256 512 l 1,14,-1
 256 256 l 1,15,-1
 384 256 l 1,12,-1
EndSplineSet
EndChar

StartChar: yacute
Encoding: 253 253 174
Width: 768
Flags: W
LayerCount: 2
Fore
SplineSet
128 -128 m 1,0,-1
 128 0 l 1,1,-1
 384 0 l 1,2,-1
 384 128 l 1,3,-1
 128 128 l 1,4,-1
 128 256 l 1,5,-1
 0 256 l 1,6,-1
 0 640 l 1,7,-1
 256 640 l 1,8,-1
 256 256 l 1,9,-1
 384 256 l 1,10,-1
 384 640 l 1,11,-1
 640 640 l 1,12,-1
 640 0 l 1,13,-1
 512 0 l 1,14,-1
 512 -128 l 1,15,-1
 128 -128 l 1,0,-1
512 896 m 1,16,-1
 512 768 l 1,17,-1
 384 768 l 1,18,-1
 384 896 l 1,19,-1
 512 896 l 1,16,-1
384 640 m 1,20,-1
 256 640 l 1,21,-1
 256 768 l 1,22,-1
 384 768 l 1,23,-1
 384 640 l 1,20,-1
EndSplineSet
EndChar

StartChar: ydieresis
Encoding: 255 255 175
Width: 768
Flags: W
LayerCount: 2
Fore
SplineSet
128 -128 m 1,0,-1
 128 0 l 1,1,-1
 384 0 l 1,2,-1
 384 128 l 1,3,-1
 128 128 l 1,4,-1
 128 256 l 1,5,-1
 0 256 l 1,6,-1
 0 640 l 1,7,-1
 256 640 l 1,8,-1
 256 256 l 1,9,-1
 384 256 l 1,10,-1
 384 640 l 1,11,-1
 640 640 l 1,12,-1
 640 0 l 1,13,-1
 512 0 l 1,14,-1
 512 -128 l 1,15,-1
 128 -128 l 1,0,-1
128 896 m 1,16,-1
 256 896 l 1,17,-1
 256 766 l 1,18,-1
 128 766 l 1,19,-1
 128 896 l 1,16,-1
384 896 m 1,20,-1
 512 896 l 1,21,-1
 512 768 l 1,22,-1
 384 768 l 1,23,-1
 384 896 l 1,20,-1
EndSplineSet
EndChar

StartChar: Amacron
Encoding: 256 256 176
Width: 896
Flags: W
LayerCount: 2
Fore
SplineSet
640 768 m 1,0,-1
 128 768 l 1,1,-1
 128 896 l 1,2,-1
 640 896 l 1,3,-1
 640 768 l 1,0,-1
0 0 m 1,4,-1
 0 384 l 1,5,-1
 128 384 l 1,6,-1
 128 512 l 1,7,-1
 256 512 l 1,8,-1
 256 256 l 1,9,-1
 512 256 l 1,10,-1
 512 512 l 1,11,-1
 640 512 l 1,12,-1
 640 384 l 1,13,-1
 768 384 l 1,14,-1
 768 0 l 1,15,-1
 512 0 l 1,16,-1
 512 128 l 1,17,-1
 256 128 l 1,18,-1
 256 0 l 1,19,-1
 0 0 l 1,4,-1
512 512 m 1,20,-1
 256 512 l 1,21,-1
 256 640 l 1,22,-1
 512 640 l 1,23,-1
 512 512 l 1,20,-1
EndSplineSet
EndChar

StartChar: amacron
Encoding: 257 257 177
Width: 896
Flags: W
LayerCount: 2
Fore
SplineSet
128 0 m 1,0,-1
 128 128 l 1,1,-1
 0 128 l 1,2,-1
 0 256 l 1,3,-1
 128 256 l 1,4,-1
 128 384 l 1,5,-1
 384 384 l 1,6,-1
 384 512 l 1,7,-1
 128 512 l 1,8,-1
 128 640 l 1,9,-1
 512 640 l 1,10,-1
 512 512 l 1,11,-1
 640 512 l 1,12,-1
 640 128 l 1,13,-1
 768 128 l 1,14,-1
 768 0 l 1,15,-1
 512 0 l 1,16,-1
 512 128 l 1,17,-1
 384 128 l 1,18,-1
 384 0 l 1,19,-1
 128 0 l 1,0,-1
128 896 m 1,20,-1
 640 896 l 1,21,-1
 640 768 l 1,22,-1
 128 768 l 1,23,-1
 128 896 l 1,20,-1
384 128 m 1,24,-1
 384 256 l 1,25,-1
 256 256 l 1,26,-1
 256 128 l 1,27,-1
 384 128 l 1,24,-1
EndSplineSet
EndChar

StartChar: dcroat
Encoding: 273 273 178
Width: 768
Flags: W
LayerCount: 2
Fore
SplineSet
384 128 m 1,0,-1
 384 384 l 1,1,-1
 256 384 l 1,2,-1
 256 128 l 1,3,-1
 384 128 l 1,0,-1
128 0 m 1,4,-1
 128 128 l 1,5,-1
 0 128 l 1,6,-1
 0 384 l 1,7,-1
 128 384 l 1,8,-1
 128 512 l 1,9,-1
 384 512 l 1,10,-1
 384 640 l 1,11,-1
 256 640 l 1,12,-1
 256 768 l 1,13,-1
 384 768 l 1,14,-1
 384 896 l 1,15,-1
 640 896 l 1,16,-1
 640 768 l 1,17,-1
 768 768 l 1,18,-1
 768 640 l 1,19,-1
 640 640 l 1,20,-1
 640 0 l 1,21,-1
 128 0 l 1,4,-1
EndSplineSet
EndChar

StartChar: Dcroat
Encoding: 272 272 179
Width: 896
Flags: W
LayerCount: 2
Fore
SplineSet
128 384 m 1,0,-1
 0 384 l 1,1,-1
 0 512 l 1,2,-1
 128 512 l 1,3,-1
 128 896 l 1,4,-1
 640 896 l 1,5,-1
 640 768 l 1,6,-1
 768 768 l 1,7,-1
 768 128 l 1,8,-1
 640 128 l 1,9,-1
 640 0 l 1,10,-1
 128 0 l 1,11,-1
 128 384 l 1,0,-1
512 128 m 1,12,-1
 512 768 l 1,13,-1
 256 768 l 1,14,-1
 256 512 l 1,15,-1
 384 512 l 1,16,-1
 384 384 l 1,17,-1
 256 384 l 1,18,-1
 256 128 l 1,19,-1
 512 128 l 1,12,-1
EndSplineSet
EndChar

StartChar: uni00AD
Encoding: 173 173 180
Width: 896
Flags: W
LayerCount: 2
Fore
SplineSet
0 384 m 1,0,-1
 768 384 l 1,1,-1
 768 256 l 1,2,-1
 0 256 l 1,3,-1
 0 384 l 1,0,-1
EndSplineSet
EndChar

StartChar: asterisk
Encoding: 42 42 181
Width: 512
Flags: W
LayerCount: 2
Fore
SplineSet
128 896 m 1,0,-1
 128 768 l 1,1,-1
 0 768 l 1,2,-1
 0 640 l 1,3,-1
 256 640 l 1,4,-1
 256 512 l 1,5,-1
 128 512 l 1,6,-1
 128 384 l 1,7,-1
 0 384 l 1,8,-1
 0 512 l 1,9,-1
 128 512 l 1,10,-1
 127 640 l 1,11,-1
 384 640 l 1,12,-1
 384 768 l 1,13,-1
 256 768 l 1,14,-1
 256 896 l 1,15,-1
 128 896 l 1,0,-1
256 512 m 1,16,-1
 384 512 l 1,17,-1
 384 384 l 1,18,-1
 256 384 l 1,19,-1
 256 512 l 1,16,-1
EndSplineSet
EndChar

StartChar: greater
Encoding: 62 62 182
Width: 768
Flags: W
LayerCount: 2
Fore
SplineSet
512 256 m 1,0,-1
 512 128 l 1,1,-1
 256 128 l 1,2,-1
 256 0 l 1,3,-1
 0 0 l 1,4,-1
 0 256 l 1,5,-1
 256 256 l 1,6,-1
 256 384 l 1,7,-1
 512 384 l 1,8,-1
 512 512 l 1,9,-1
 640 512 l 1,10,-1
 640 256 l 1,11,-1
 512 256 l 1,0,-1
256 768 m 1,12,-1
 256 640 l 1,13,-1
 0 640 l 1,14,-1
 0 768 l 1,15,-1
 256 768 l 1,12,-1
512 512 m 1,16,-1
 256 512 l 1,17,-1
 256 640 l 1,18,-1
 512 640 l 1,19,-1
 512 512 l 1,16,-1
EndSplineSet
EndChar

StartChar: guillemotleft
Encoding: 171 171 183
Width: 896
Flags: W
LayerCount: 2
Fore
SplineSet
128 256 m 1,0,-1
 0 256 l 1,1,-1
 0 512 l 1,2,-1
 128 512 l 1,3,-1
 128 384 l 1,4,-1
 256 384 l 1,5,-1
 256 256 l 1,6,-1
 384 256 l 1,7,-1
 384 0 l 1,8,-1
 256 0 l 1,9,-1
 256 128 l 1,10,-1
 128 128 l 1,11,-1
 128 256 l 1,0,-1
256 768 m 1,12,-1
 384 768 l 1,13,-1
 384 640 l 1,14,-1
 256 640 l 1,15,-1
 256 768 l 1,12,-1
640 768 m 1,16,-1
 768 768 l 1,17,-1
 768 640 l 1,18,-1
 640 640 l 1,19,-1
 640 768 l 1,16,-1
128 512 m 1,20,-1
 128 640 l 1,21,-1
 256 640 l 1,22,-1
 256 512 l 1,23,-1
 128 512 l 1,20,-1
384 256 m 1,24,-1
 384 512 l 1,25,-1
 512 512 l 1,26,-1
 512 384 l 1,27,-1
 640 384 l 1,28,-1
 640 256 l 1,29,-1
 768 256 l 1,30,-1
 768 0 l 1,31,-1
 640 0 l 1,32,-1
 640 128 l 1,33,-1
 512 128 l 1,34,-1
 512 256 l 1,35,-1
 384 256 l 1,24,-1
512 512 m 1,36,-1
 512 640 l 1,37,-1
 640 640 l 1,38,-1
 640 512 l 1,39,-1
 512 512 l 1,36,-1
EndSplineSet
EndChar

StartChar: guillemotright
Encoding: 187 187 184
Width: 896
Flags: W
LayerCount: 2
Fore
SplineSet
640 256 m 1,0,-1
 640 128 l 1,1,-1
 512 128 l 1,2,-1
 512 0 l 1,3,-1
 384 0 l 1,4,-1
 384 256 l 1,5,-1
 512 256 l 1,6,-1
 512 384 l 1,7,-1
 640 384 l 1,8,-1
 640 512 l 1,9,-1
 768 512 l 1,10,-1
 768 256 l 1,11,-1
 640 256 l 1,0,-1
512 768 m 1,12,-1
 512 640 l 1,13,-1
 384 640 l 1,14,-1
 384 768 l 1,15,-1
 512 768 l 1,12,-1
128 768 m 1,16,-1
 128 640 l 1,17,-1
 0 640 l 1,18,-1
 0 768 l 1,19,-1
 128 768 l 1,16,-1
640 512 m 1,20,-1
 512 512 l 1,21,-1
 512 640 l 1,22,-1
 640 640 l 1,23,-1
 640 512 l 1,20,-1
384 256 m 1,24,-1
 256 256 l 1,25,-1
 256 128 l 1,26,-1
 128 128 l 1,27,-1
 128 0 l 1,28,-1
 0 0 l 1,29,-1
 0 256 l 1,30,-1
 128 256 l 1,31,-1
 128 384 l 1,32,-1
 256 384 l 1,33,-1
 256 512 l 1,34,-1
 384 512 l 1,35,-1
 384 256 l 1,24,-1
256 512 m 1,36,-1
 128 512 l 1,37,-1
 128 640 l 1,38,-1
 256 640 l 1,39,-1
 256 512 l 1,36,-1
EndSplineSet
EndChar

StartChar: oe
Encoding: 339 339 185
Width: 1152
Flags: W
LayerCount: 2
Fore
SplineSet
768 384 m 1,0,-1
 768 512 l 1,1,-1
 640 512 l 1,2,-1
 640 384 l 1,3,-1
 768 384 l 1,0,-1
384 128 m 1,4,-1
 384 512 l 1,5,-1
 256 512 l 1,6,-1
 256 128 l 1,7,-1
 384 128 l 1,4,-1
128 0 m 1,8,-1
 128 128 l 1,9,-1
 0 128 l 1,10,-1
 0 512 l 1,11,-1
 128 512 l 1,12,-1
 128 640 l 1,13,-1
 896 640 l 1,14,-1
 896 512 l 1,15,-1
 1024 512 l 1,16,-1
 1024 256 l 1,17,-1
 640 256 l 1,18,-1
 640 128 l 1,19,-1
 896 128 l 1,20,-1
 896 0 l 1,21,-1
 128 0 l 1,8,-1
EndSplineSet
EndChar

StartChar: OE
Encoding: 338 338 186
Width: 1024
Flags: W
LayerCount: 2
Fore
SplineSet
384 128 m 1,0,-1
 384 768 l 1,1,-1
 256 768 l 1,2,-1
 256 128 l 1,3,-1
 384 128 l 1,0,-1
128 0 m 1,4,-1
 128 128 l 1,5,-1
 0 128 l 1,6,-1
 0 768 l 1,7,-1
 128 768 l 1,8,-1
 128 896 l 1,9,-1
 896 896 l 1,10,-1
 896 768 l 1,11,-1
 640 768 l 1,12,-1
 640 512 l 1,13,-1
 768 512 l 1,14,-1
 768 384 l 1,15,-1
 640 384 l 1,16,-1
 640 128 l 1,17,-1
 896 128 l 1,18,-1
 896 0 l 1,19,-1
 128 0 l 1,4,-1
EndSplineSet
EndChar

StartChar: utilde
Encoding: 361 361 187
Width: 768
Flags: W
LayerCount: 2
Fore
SplineSet
128 0 m 1,0,-1
 128 128 l 1,1,-1
 0 128 l 1,2,-1
 0 640 l 1,3,-1
 256 640 l 1,4,-1
 256 128 l 1,5,-1
 384 128 l 1,6,-1
 384 640 l 1,7,-1
 512 640 l 1,8,-1
 512 768 l 1,9,-1
 640 768 l 1,10,-1
 640 896 l 1,11,-1
 511 896 l 1,12,-1
 512 768 l 1,13,-1
 384 768 l 1,14,-1
 384 896 l 1,15,-1
 255 896 l 1,16,-1
 256 768 l 1,17,-1
 128 768 l 1,18,-1
 128 640 l 1,19,-1
 256 640 l 1,20,-1
 256 768 l 1,21,-1
 384 768 l 1,22,-1
 384 640 l 1,23,-1
 640 640 l 1,24,-1
 640 0 l 1,25,-1
 128 0 l 1,0,-1
EndSplineSet
EndChar

StartChar: Utilde
Encoding: 360 360 188
Width: 896
Flags: W
LayerCount: 2
Fore
SplineSet
128 0 m 1,0,-1
 128 128 l 1,1,-1
 0 128 l 1,2,-1
 0 640 l 1,3,-1
 256 640 l 1,4,-1
 256 128 l 1,5,-1
 512 128 l 1,6,-1
 512 640 l 1,7,-1
 768 640 l 1,8,-1
 768 128 l 1,9,-1
 640 128 l 1,10,-1
 640 0 l 1,11,-1
 128 0 l 1,0,-1
384 896 m 1,12,-1
 384 768 l 1,13,-1
 256 768 l 1,14,-1
 256 640 l 1,15,-1
 128 640 l 1,16,-1
 128 768 l 1,17,-1
 256 768 l 1,18,-1
 255 896 l 1,19,-1
 384 896 l 1,12,-1
640 896 m 1,20,-1
 640 768 l 1,21,-1
 512 768 l 1,22,-1
 512 640 l 1,23,-1
 384 640 l 1,24,-1
 384 768 l 1,25,-1
 512 768 l 1,26,-1
 511 896 l 1,27,-1
 640 896 l 1,20,-1
EndSplineSet
EndChar

StartChar: ordmasculine
Encoding: 186 186 189
Width: 768
Flags: W
LayerCount: 2
Fore
SplineSet
128 384 m 1,0,-1
 128 512 l 1,1,-1
 0 512 l 1,2,-1
 0 768 l 1,3,-1
 128 768 l 1,4,-1
 128 896 l 1,5,-1
 512 896 l 1,6,-1
 512 768 l 1,7,-1
 640 768 l 1,8,-1
 640 512 l 1,9,-1
 512 512 l 1,10,-1
 512 384 l 1,11,-1
 128 384 l 1,0,-1
384 512 m 1,12,-1
 384 768 l 1,13,-1
 256 768 l 1,14,-1
 256 512 l 1,15,-1
 384 512 l 1,12,-1
EndSplineSet
EndChar

StartChar: degree
Encoding: 176 176 190
Width: 768
Flags: W
LayerCount: 2
Fore
SplineSet
128 384 m 1,0,-1
 128 512 l 1,1,-1
 0 512 l 1,2,-1
 0 768 l 1,3,-1
 128 768 l 1,4,-1
 128 896 l 1,5,-1
 512 896 l 1,6,-1
 512 768 l 1,7,-1
 640 768 l 1,8,-1
 640 512 l 1,9,-1
 512 512 l 1,10,-1
 512 384 l 1,11,-1
 128 384 l 1,0,-1
384 512 m 1,12,-1
 384 768 l 1,13,-1
 256 768 l 1,14,-1
 256 512 l 1,15,-1
 384 512 l 1,12,-1
EndSplineSet
EndChar
